<svg width="536" height="602" viewBox="0 0 536 602" fill="none" xmlns="http://www.w3.org/2000/svg">
<g clip-path="url(#clip0_305_4841)" filter="url(#filter0_b_305_4841)">
<mask id="path-1-inside-1_305_4841" fill="white">
<path fill-rule="evenodd" clip-rule="evenodd" d="M206.153 540.117C436.317 632.283 432.682 364.686 497.288 236.259C478.554 224.412 457.38 216.975 435.352 214.504C413.324 212.033 391.013 214.593 370.087 221.992C349.162 229.391 330.165 241.437 314.518 257.229C298.87 273.021 286.978 292.15 279.732 313.184C262.739 352.287 252.375 389.016 240.047 428.065C226.04 464.556 214.857 502.069 206.598 540.27"/>
</mask>
<path fill-rule="evenodd" clip-rule="evenodd" d="M206.153 540.117C436.317 632.283 432.682 364.686 497.288 236.259C478.554 224.412 457.38 216.975 435.352 214.504C413.324 212.033 391.013 214.593 370.087 221.992C349.162 229.391 330.165 241.437 314.518 257.229C298.87 273.021 286.978 292.15 279.732 313.184C262.739 352.287 252.375 389.016 240.047 428.065C226.04 464.556 214.857 502.069 206.598 540.27" fill="white" fill-opacity="0.05"/>
<path d="M497.288 236.259L498.182 236.709L498.589 235.899L497.823 235.414L497.288 236.259ZM279.732 313.184L280.649 313.582L280.664 313.546L280.677 313.509L279.732 313.184ZM240.047 428.065L240.981 428.424L240.992 428.395L241.001 428.367L240.047 428.065ZM205.781 541.045C263.469 564.146 306.689 564.774 340.051 550.501C373.397 536.235 396.68 507.173 414.698 471.36C432.714 435.55 445.533 392.852 457.868 351.162C470.218 309.424 482.079 268.718 498.182 236.709L496.395 235.81C480.194 268.014 468.283 308.917 455.951 350.594C443.605 392.318 430.833 434.839 412.911 470.461C394.992 506.08 371.99 534.662 339.265 548.662C306.556 562.655 263.919 562.171 206.525 539.188L205.781 541.045ZM497.823 235.414C478.96 223.486 457.642 215.998 435.464 213.51L435.241 215.498C457.118 217.952 478.147 225.338 496.754 237.105L497.823 235.414ZM435.464 213.51C413.285 211.023 390.822 213.6 369.754 221.049L370.421 222.935C391.204 215.586 413.363 213.044 435.241 215.498L435.464 213.51ZM369.754 221.049C348.686 228.498 329.56 240.626 313.807 256.525L315.228 257.933C330.769 242.248 349.638 230.283 370.421 222.935L369.754 221.049ZM313.807 256.525C298.054 272.424 286.082 291.682 278.786 312.858L280.677 313.509C287.875 292.618 299.687 273.618 315.228 257.933L313.807 256.525ZM278.815 312.785C261.795 351.95 251.41 388.75 239.094 427.764L241.001 428.367C253.34 389.282 263.683 352.624 280.649 313.582L278.815 312.785ZM239.114 427.707C225.088 464.245 213.89 501.807 205.62 540.059L207.575 540.482C215.823 502.33 226.992 464.866 240.981 428.424L239.114 427.707Z" fill="url(#paint0_linear_305_4841)" fill-opacity="0.5" mask="url(#path-1-inside-1_305_4841)"/>
<path fill-rule="evenodd" clip-rule="evenodd" d="M175.907 530.168C201.207 466.741 222.778 401.889 240.509 335.946C257.434 252.846 175.343 184.512 106.115 181.252C89.3649 204.283 42.7183 349.407 38.905 377.738C29.1576 453.991 101.983 521.289 175.907 530.168Z" fill="white" fill-opacity="0.05"/>
<path d="M240.022 335.831C222.33 401.627 200.814 466.335 175.585 529.625C138.874 525.115 102.454 506.165 76.3909 478.873C50.2401 451.488 34.5512 415.745 39.4008 377.803C40.3488 370.762 43.9679 356.416 49.1403 338.462C54.3092 320.52 61.0188 299.011 68.133 277.665C75.2474 256.32 82.7646 235.144 89.5485 217.868C96.2566 200.785 102.224 187.578 106.362 181.765C140.761 183.468 178.349 201.282 205.261 229.007C232.233 256.794 248.437 294.487 240.022 335.831Z" stroke="url(#paint1_linear_305_4841)" stroke-opacity="0.5"/>
<path d="M268.589 253.701C226.616 183.069 229.545 112.623 322.397 57.5826C359.222 135.431 348.048 202.363 268.589 253.701Z" fill="white" fill-opacity="0.05" stroke="url(#paint2_linear_305_4841)" stroke-opacity="0.5" stroke-miterlimit="10"/>
</g>
<defs>
<filter id="filter0_b_305_4841" x="-5.99902" y="-6" width="547.794" height="613.702" filterUnits="userSpaceOnUse" color-interpolation-filters="sRGB">
<feFlood flood-opacity="0" result="BackgroundImageFix"/>
<feGaussianBlur in="BackgroundImageFix" stdDeviation="3"/>
<feComposite in2="SourceAlpha" operator="in" result="effect1_backgroundBlur_305_4841"/>
<feBlend mode="normal" in="SourceGraphic" in2="effect1_backgroundBlur_305_4841" result="shape"/>
</filter>
<linearGradient id="paint0_linear_305_4841" x1="375.045" y1="191.38" x2="401.128" y2="567.918" gradientUnits="userSpaceOnUse">
<stop stop-color="white"/>
<stop offset="0.515625" stop-color="white" stop-opacity="0"/>
<stop offset="1" stop-color="white" stop-opacity="0.6"/>
</linearGradient>
<linearGradient id="paint1_linear_305_4841" x1="53.7891" y1="196.588" x2="193.29" y2="497.005" gradientUnits="userSpaceOnUse">
<stop stop-color="white"/>
<stop offset="0.515625" stop-color="white" stop-opacity="0"/>
<stop offset="1" stop-color="white" stop-opacity="0.6"/>
</linearGradient>
<linearGradient id="paint2_linear_305_4841" x1="266.583" y1="68.7387" x2="315.342" y2="268.629" gradientUnits="userSpaceOnUse">
<stop stop-color="white"/>
<stop offset="0.515625" stop-color="white" stop-opacity="0"/>
<stop offset="1" stop-color="white" stop-opacity="0.6"/>
</linearGradient>
<clipPath id="clip0_305_4841">
<rect width="393.97" height="500.498" fill="white" transform="translate(163.416) rotate(19.0568)"/>
</clipPath>
</defs>
</svg>
