<svg width="460" height="460" viewBox="0 0 460 460" fill="none" xmlns="http://www.w3.org/2000/svg">
<g clip-path="url(#clip0_183_2106)" filter="url(#filter0_b_183_2106)">
<mask id="path-1-inside-1_183_2106" fill="white">
<path fill-rule="evenodd" clip-rule="evenodd" d="M98.3326 494.093C317.441 607.267 339.327 341.972 415.525 220.97C398.104 207.455 377.848 198.075 356.274 193.531C334.699 188.987 312.365 189.396 290.942 194.729C269.519 200.062 249.563 210.18 232.566 224.325C215.57 238.471 201.974 256.278 192.796 276.413C172.247 313.511 158.488 348.89 142.563 386.378C125.219 421.173 110.574 457.25 98.7583 494.287"/>
</mask>
<path fill-rule="evenodd" clip-rule="evenodd" d="M98.3326 494.093C317.441 607.267 339.327 341.972 415.525 220.97C398.104 207.455 377.848 198.075 356.274 193.531C334.699 188.987 312.365 189.396 290.942 194.729C269.519 200.062 249.563 210.18 232.566 224.325C215.57 238.471 201.974 256.278 192.796 276.413C172.247 313.511 158.488 348.89 142.563 386.378C125.219 421.173 110.574 457.25 98.7583 494.287" fill="white" fill-opacity="0.35"/>
<path d="M415.525 220.97L416.371 221.502L416.854 220.735L416.138 220.179L415.525 220.97ZM192.796 276.413L193.67 276.898L193.689 276.863L193.706 276.828L192.796 276.413ZM142.563 386.378L143.458 386.825L143.472 386.797L143.484 386.769L142.563 386.378ZM97.8737 494.981C152.792 523.347 195.525 528.086 229.919 517.131C264.295 506.182 290.116 479.623 311.367 445.88C332.615 412.14 349.373 371.085 365.557 330.982C381.76 290.834 397.38 251.661 416.371 221.502L414.679 220.437C395.571 250.78 379.882 290.144 363.703 330.234C347.505 370.369 330.811 411.252 309.674 444.814C288.54 478.373 263.044 504.481 229.312 515.226C195.596 525.965 153.428 521.425 98.7915 493.204L97.8737 494.981ZM416.138 220.179C398.597 206.572 378.202 197.128 356.48 192.552L356.068 194.509C377.494 199.022 397.611 208.338 414.912 221.76L416.138 220.179ZM356.48 192.552C334.757 187.977 312.27 188.39 290.7 193.759L291.183 195.7C312.46 190.403 334.641 189.997 356.068 194.509L356.48 192.552ZM290.7 193.759C269.131 199.128 249.038 209.315 231.927 223.557L233.206 225.094C250.087 211.045 269.907 200.996 291.183 195.7L290.7 193.759ZM231.927 223.557C214.815 237.798 201.126 255.726 191.886 275.998L193.706 276.828C202.821 256.829 216.325 239.143 233.206 225.094L231.927 223.557ZM191.921 275.929C171.34 313.086 157.553 348.533 141.643 385.987L143.484 386.769C159.422 349.247 173.155 313.937 193.67 276.898L191.921 275.929ZM141.668 385.932C124.301 420.773 109.637 456.897 97.8056 493.983L99.711 494.591C111.511 457.603 126.137 421.574 143.458 386.825L141.668 385.932Z" fill="white" fill-opacity="0.5" mask="url(#path-1-inside-1_183_2106)"/>
<path fill-rule="evenodd" clip-rule="evenodd" d="M69.3333 481.362C100.423 420.972 127.957 358.817 151.793 295.215C176.465 214.549 101.694 139.073 33.4612 129.253C14.684 150.46 -45.322 289.705 -51.7959 317.393C-68.7088 391.963 -3.01324 465.53 69.3333 481.362Z" fill="white" fill-opacity="0.35"/>
<path d="M151.32 295.054C127.536 358.512 100.071 420.531 69.0649 480.791C33.1481 472.829 -1.10572 450.599 -24.3106 421.095C-47.5942 391.491 -59.7233 354.608 -51.3086 317.505C-49.6995 310.624 -44.7499 296.765 -37.9189 279.481C-31.0924 262.21 -22.4007 241.552 -13.3241 221.095C-4.24727 200.639 5.2123 180.388 13.5743 163.929C21.8425 147.655 29.0083 135.149 33.6583 129.787C67.5539 134.75 103.071 155.966 127.076 185.979C151.134 216.059 163.588 254.921 151.32 295.054Z" stroke="white" stroke-opacity="0.5"/>
<path d="M187.426 216.458C152.596 142.527 162.205 73.0581 259.379 27.4051C288.426 107.99 270.989 173.195 187.426 216.458Z" fill="white" fill-opacity="0.35" stroke="white" stroke-opacity="0.5" stroke-miterlimit="10"/>
</g>
<defs>
<filter id="filter0_b_183_2106" x="-109.394" y="-54.7488" width="583.294" height="635.648" filterUnits="userSpaceOnUse" color-interpolation-filters="sRGB">
<feFlood flood-opacity="0" result="BackgroundImageFix"/>
<feGaussianBlur in="BackgroundImageFix" stdDeviation="5"/>
<feComposite in2="SourceAlpha" operator="in" result="effect1_backgroundBlur_183_2106"/>
<feBlend mode="normal" in="SourceGraphic" in2="effect1_backgroundBlur_183_2106" result="shape"/>
</filter>
<clipPath id="clip0_183_2106">
<rect width="391.871" height="497.832" fill="white" transform="translate(107.457 -44.7488) rotate(24.5511)"/>
</clipPath>
</defs>
</svg>
