<svg width="24" height="24" viewBox="0 0 24 24" fill="none" xmlns="http://www.w3.org/2000/svg">
<path fill-rule="evenodd" clip-rule="evenodd" d="M1.05695 12.264C3.21608 17.0344 7.42227 20 12.0371 20C16.6519 20 20.858 17.0344 23.0171 12.264C23.0547 12.1811 23.0742 12.0911 23.0742 12C23.0742 11.9089 23.0547 11.8189 23.0171 11.736C20.858 6.96565 16.6519 4 12.0371 4C7.42227 4 3.22693 6.96565 1.05695 11.736C1.0194 11.8189 1 11.9089 1 12C1 12.0911 1.0194 12.1811 1.05695 12.264ZM9.65757 15.5566C10.3618 16.0273 11.1899 16.2785 12.037 16.2785C13.1718 16.2776 14.2598 15.8266 15.0626 15.0246C15.8653 14.2225 16.3171 13.1348 16.319 12.0001C16.3197 11.153 16.0692 10.3247 15.5991 9.62008C15.1291 8.91541 14.4606 8.36601 13.6782 8.04135C12.8958 7.7167 12.0347 7.63138 11.2038 7.7962C10.3729 7.96101 9.60958 8.36856 9.01036 8.96728C8.41114 9.56599 8.00294 10.329 7.83742 11.1597C7.67191 11.9905 7.75651 12.8516 8.08051 13.6343C8.4045 14.417 8.95331 15.0859 9.65757 15.5566Z" fill="#20877D"/>
</svg>
