<svg width="56" height="43" viewBox="0 0 56 43" fill="none" xmlns="http://www.w3.org/2000/svg">
<path d="M0 0V43H56V0H0ZM3.65239 3.79434H52.348V31.776L42.7421 20.8483C42.3705 20.4258 41.8075 20.1933 41.2586 20.2357C40.8068 20.2696 40.3703 20.4858 40.0604 20.8285L31.8051 29.9384L19.6312 15.8099C19.2635 15.3802 18.6996 15.1398 18.1477 15.1773C17.6896 15.2064 17.245 15.423 16.9304 15.7702L3.65217 30.5909L3.65239 3.79434ZM32.2611 7.58869C29.2571 7.58869 26.783 10.1594 26.783 13.2796C26.783 16.4004 29.2576 18.9706 32.2611 18.9706C35.2651 18.9706 37.7391 16.3998 37.7391 13.2796C37.7391 10.1589 35.2646 7.58869 32.2611 7.58869ZM32.2611 11.383C33.2912 11.383 34.0873 12.2101 34.0873 13.2802C34.0873 14.3503 33.2912 15.1774 32.2611 15.1774C31.231 15.1774 30.4349 14.3503 30.4349 13.2802C30.4349 12.2101 31.231 11.383 32.2611 11.383ZM18.223 19.8803L34.8665 39.2066H3.6513V36.1436L18.223 19.8803ZM41.373 24.9193L52.3491 37.4083V39.2067H39.7752L34.2398 32.7843L41.373 24.9193Z" fill="#C4C4C4"/>
</svg>
