<svg width="18" height="18" viewBox="0 0 18 18" fill="none" xmlns="http://www.w3.org/2000/svg">
<path d="M16.5 18H1.5C0.67 18 0 17.33 0 16.5V3.5C0 2.67 0.67 2 1.5 2H16.5C17.33 2 18 2.67 18 3.5V16.5C18 17.33 17.33 18 16.5 18ZM1.5 3C1.22 3 1 3.22 1 3.5V16.5C1 16.78 1.22 17 1.5 17H16.5C16.78 17 17 16.78 17 16.5V3.5C17 3.22 16.78 3 16.5 3H1.5Z" fill="#20877D"/>
<path d="M17.5 8H0.5C0.22 8 0 7.78 0 7.5C0 7.22 0.22 7 0.5 7H17.5C17.78 7 18 7.22 18 7.5C18 7.78 17.78 8 17.5 8Z" fill="#20877D"/>
<path d="M4.5 5C4.22 5 4 4.78 4 4.5V0.5C4 0.22 4.22 0 4.5 0C4.78 0 5 0.22 5 0.5V4.5C5 4.78 4.78 5 4.5 5Z" fill="#20877D"/>
<path d="M13.5 5C13.22 5 13 4.78 13 4.5V0.5C13 0.22 13.22 0 13.5 0C13.78 0 14 0.22 14 0.5V4.5C14 4.78 13.78 5 13.5 5Z" fill="#20877D"/>
</svg>
