<svg width="24" height="24" viewBox="0 0 24 24" fill="none" xmlns="http://www.w3.org/2000/svg">
<path fill-rule="evenodd" clip-rule="evenodd" d="M5.625 8.8125C5.625 7.88052 6.38052 7.125 7.3125 7.125C8.24448 7.125 9 7.88052 9 8.8125C9 9.74448 8.24448 10.5 7.3125 10.5C6.38052 10.5 5.625 9.74448 5.625 8.8125ZM4.55626 9.375H2.8125C2.50184 9.375 2.25 9.12316 2.25 8.8125C2.25 8.50184 2.50184 8.25 2.8125 8.25H4.55626C4.81685 6.96624 5.95184 6 7.3125 6C8.67316 6 9.80815 6.96624 10.0687 8.25H20.8125C21.1232 8.25 21.375 8.50184 21.375 8.8125C21.375 9.12316 21.1232 9.375 20.8125 9.375H10.0687C9.80815 10.6588 8.67316 11.625 7.3125 11.625C5.95184 11.625 4.81685 10.6588 4.55626 9.375Z" fill="#20877D"/>
<path fill-rule="evenodd" clip-rule="evenodd" d="M18 14.4375C18 13.5055 17.2445 12.75 16.3125 12.75C15.3805 12.75 14.625 13.5055 14.625 14.4375C14.625 15.3695 15.3805 16.125 16.3125 16.125C17.2445 16.125 18 15.3695 18 14.4375ZM19.0687 15H20.8125C21.1232 15 21.375 14.7482 21.375 14.4375C21.375 14.1268 21.1232 13.875 20.8125 13.875H19.0687C18.8082 12.5912 17.6732 11.625 16.3125 11.625C14.9518 11.625 13.8168 12.5912 13.5563 13.875H2.8125C2.50184 13.875 2.25 14.1268 2.25 14.4375C2.25 14.7482 2.50184 15 2.8125 15H13.5563C13.8168 16.2838 14.9518 17.25 16.3125 17.25C17.6732 17.25 18.8082 16.2838 19.0687 15Z" fill="#20877D"/>
</svg>
