<svg width="16" height="18" viewBox="0 0 16 18" fill="none" xmlns="http://www.w3.org/2000/svg">
<path d="M8.00307 10.5305C6.98213 10.5312 5.98395 10.2229 5.13477 9.64471C4.2856 9.06653 3.62361 8.24443 3.23249 7.28238C2.84137 6.32033 2.73872 5.26156 2.93752 4.23999C3.13632 3.21842 3.62763 2.27996 4.34933 1.54328C5.07102 0.806606 5.99069 0.304819 6.99196 0.101403C7.99324 -0.102013 9.03116 0.00207269 9.97444 0.400496C10.9177 0.798919 11.724 1.47379 12.2912 2.33973C12.8585 3.20566 13.1613 4.22377 13.1613 5.26527C13.1597 6.66065 12.6158 7.99846 11.6488 8.98544C10.6819 9.97242 9.37089 10.528 8.00307 10.5305ZM8.00307 1.11707C7.19701 1.11707 6.40904 1.36091 5.73883 1.81775C5.06862 2.2746 4.54628 2.92393 4.23781 3.68363C3.92935 4.44334 3.84863 5.2793 4.00588 6.0858C4.16314 6.8923 4.55129 7.63311 5.12126 8.21456C5.69123 8.79602 6.4174 9.192 7.20797 9.35242C7.99854 9.51284 8.81799 9.43051 9.5627 9.11583C10.3074 8.80115 10.9439 8.26826 11.3917 7.58454C11.8395 6.90082 12.0786 6.09698 12.0786 5.27468C12.0794 4.72802 11.9746 4.18656 11.7702 3.68123C11.5657 3.1759 11.2657 2.71663 10.8872 2.32964C10.5088 1.94266 10.0592 1.63555 9.56435 1.42587C9.06946 1.2162 8.53893 1.10807 8.00307 1.10766V1.11707Z" fill="white"/>
<path d="M14.1234 17.9999H1.87845C1.54603 18.0026 1.2191 17.9136 0.932152 17.7424C0.645206 17.5712 0.408894 17.3241 0.248232 17.0272C0.0810093 16.7303 -0.00467487 16.393 0.000196733 16.0506C0.00506833 15.7082 0.100343 15.3736 0.275942 15.0818C1.58626 12.8633 4.61904 11.4293 8.00248 11.4293C11.3859 11.4293 14.4156 12.8633 15.7259 15.0818C15.8993 15.3725 15.9937 15.705 15.9997 16.0453C16.0057 16.3855 15.9229 16.7213 15.7598 17.0182C15.5968 17.3151 15.3594 17.5624 15.0718 17.7349C14.7843 17.9074 14.457 17.9989 14.1234 17.9999ZM8.00248 12.537C5.03736 12.537 2.30597 13.7921 1.20482 15.656C1.13169 15.7813 1.09312 15.9244 1.09312 16.0702C1.09312 16.216 1.13169 16.3591 1.20482 16.4844C1.27248 16.6091 1.37194 16.7129 1.49269 16.7847C1.61344 16.8565 1.751 16.8937 1.89076 16.8923H14.1357C14.2756 16.8944 14.4134 16.8575 14.5343 16.7856C14.6551 16.7137 14.7545 16.6096 14.8216 16.4844C14.8948 16.3591 14.9334 16.216 14.9334 16.0702C14.9334 15.9244 14.8948 15.7813 14.8216 15.656C13.6959 13.789 10.9645 12.537 8.00248 12.537Z" fill="white"/>
</svg>
