<svg width="24" height="24" viewBox="0 0 24 24" fill="none" xmlns="http://www.w3.org/2000/svg">
<path d="M12.0833 13.7162C10.9245 13.7169 9.79154 13.3739 8.82772 12.7306C7.8639 12.0874 7.11253 11.1727 6.66861 10.1023C6.22469 9.03197 6.10818 7.85398 6.33382 6.71739C6.55946 5.5808 7.1171 4.53667 7.93623 3.71705C8.75536 2.89743 9.79919 2.33914 10.9356 2.11282C12.0721 1.8865 13.2502 2.00231 14.3208 2.44559C15.3914 2.88887 16.3065 3.63973 16.9504 4.60316C17.5942 5.5666 17.9379 6.69934 17.9379 7.85811C17.936 9.4106 17.3187 10.899 16.2213 11.9971C15.1238 13.0953 13.6358 13.7134 12.0833 13.7162Z" fill="#20877D"/>
<path d="M19.0302 22.0266H5.13206C4.75476 22.0296 4.38369 21.9306 4.058 21.7401C3.73232 21.5496 3.4641 21.2747 3.28175 20.9444C3.09195 20.6141 2.99469 20.2387 3.00022 19.8578C3.00575 19.4769 3.11389 19.1045 3.3132 18.7799C4.80042 16.3117 8.24266 14.7162 12.0829 14.7162C15.9231 14.7162 19.3619 16.3117 20.8491 18.7799C21.0458 19.1034 21.153 19.4733 21.1598 19.8519C21.1666 20.2304 21.0726 20.604 20.8876 20.9343C20.7025 21.2646 20.433 21.5398 20.1067 21.7318C19.7803 21.9237 19.4088 22.0255 19.0302 22.0266Z" fill="#20877D"/>
</svg>
