<svg width="19" height="19" viewBox="0 0 19 19" fill="none" xmlns="http://www.w3.org/2000/svg">
<path d="M8 16C3.59 16 0 12.41 0 8C0 3.59 3.59 0 8 0C12.41 0 16 3.59 16 8C16 12.41 12.41 16 8 16ZM8 1C4.14 1 1 4.14 1 8C1 11.86 4.14 15 8 15C11.86 15 15 11.86 15 8C15 4.14 11.86 1 8 1Z" fill="#20877D"/>
<path d="M18 18.5C17.87 18.5 17.74 18.45 17.65 18.35L13.65 14.35C13.45 14.15 13.45 13.84 13.65 13.64C13.85 13.44 14.16 13.44 14.36 13.64L18.36 17.64C18.56 17.84 18.56 18.15 18.36 18.35C18.26 18.45 18.13 18.5 18 18.5Z" fill="#20877D"/>
</svg>
