<svg width="24" height="24" viewBox="0 0 24 24" fill="none" xmlns="http://www.w3.org/2000/svg">
<path fill-rule="evenodd" clip-rule="evenodd" d="M3.40589 3.40589C2 4.81177 2 7.07452 2 11.6V12.4C2 16.9255 2 19.1882 3.40589 20.5941C4.81177 22 7.07452 22 11.6 22H12.4C16.9255 22 19.1882 22 20.5941 20.5941C22 19.1882 22 16.9255 22 12.4V11.6C22 7.07452 22 4.81177 20.5941 3.40589C19.1882 2 16.9255 2 12.4 2H11.6C7.07452 2 4.81177 2 3.40589 3.40589ZM5.33301 8.125C5.44008 13.3275 8.17274 16.4583 12.6768 16.4583H12.9381V13.482C14.5785 13.6485 15.8018 14.8749 16.3012 16.4583H18.6663C18.0247 14.0896 16.3612 12.78 15.3272 12.2797C16.3604 11.6609 17.8226 10.1607 18.167 8.125H16.0152C15.5637 9.78046 14.2206 11.2806 12.9373 11.4231V8.125H10.7512V13.8991C9.42082 13.5661 7.68534 11.9466 7.61422 8.125H5.33301Z" fill="#20877D"/>
</svg>
