<svg width="583" height="590" viewBox="0 0 583 590" fill="none" xmlns="http://www.w3.org/2000/svg">
<g clip-path="url(#clip0_183_2446)" filter="url(#filter0_b_183_2446)">
<mask id="path-1-inside-1_183_2446" fill="white">
<path fill-rule="evenodd" clip-rule="evenodd" d="M549.654 78.816C400.002 -145.888 238.161 96.459 100.956 171.83C110.457 194.019 124.866 213.756 143.107 229.563C161.347 245.371 182.945 256.84 206.286 263.112C229.626 269.383 254.104 270.296 277.887 265.78C301.67 261.265 324.142 251.438 343.621 237.037C382.994 212.435 414.955 185.874 450.108 158.443C485.19 134.344 518.369 107.585 549.35 78.4037"/>
</mask>
<path d="M100.956 171.83L100.475 170.953L99.6802 171.39L100.037 172.223L100.956 171.83ZM343.621 237.037L343.092 236.189L343.058 236.209L343.027 236.233L343.621 237.037ZM450.108 158.443L449.542 157.618L449.517 157.636L449.493 157.654L450.108 158.443ZM550.486 78.2616C512.985 21.954 474.611 -5.25559 435.902 -13.0269C397.209 -20.7946 358.41 -9.09384 320.156 11.9185C281.905 32.9292 244.066 63.3263 207.274 93.1232C170.445 122.951 134.68 152.163 100.475 170.953L101.438 172.706C135.835 153.811 171.752 124.466 208.533 94.6775C245.352 64.8584 283.052 34.5809 321.119 13.6715C359.182 -7.23616 397.478 -18.7008 435.508 -11.066C473.52 -3.43472 511.496 23.3262 548.821 79.3703L550.486 78.2616ZM100.037 172.223C109.597 194.551 124.097 214.412 142.452 230.319L143.761 228.807C125.636 213.099 111.316 193.486 101.876 171.436L100.037 172.223ZM142.452 230.319C160.806 246.226 182.54 257.766 206.026 264.077L206.545 262.146C183.351 255.913 161.887 244.516 143.761 228.807L142.452 230.319ZM206.026 264.077C229.512 270.388 254.142 271.306 278.073 266.763L277.7 264.798C254.065 269.285 229.74 268.378 206.545 262.146L206.026 264.077ZM278.073 266.763C302.004 262.219 324.616 252.332 344.216 237.841L343.027 236.233C323.668 250.545 301.335 260.31 277.7 264.798L278.073 266.763ZM344.151 237.885C383.581 213.247 415.599 186.64 450.723 159.231L449.493 157.654C414.31 185.108 382.407 211.622 343.092 236.189L344.151 237.885ZM450.674 159.267C485.799 135.139 519.017 108.348 550.035 79.1317L548.664 77.6758C517.721 106.822 484.582 133.549 449.542 157.618L450.674 159.267Z" fill="#20877D" mask="url(#path-1-inside-1_183_2446)"/>
<path d="M393.192 241.183C449.672 193.055 508.912 148.261 570.61 107.033C600.789 133.737 621.79 173.231 628.34 213.821C634.909 254.536 626.932 296.302 599.161 327.365C593.964 333.101 581.862 343.742 566.144 356.66C550.436 369.57 531.144 384.73 511.591 399.493C492.038 414.257 472.227 428.62 455.48 439.936C438.905 451.136 425.387 459.312 418.087 461.969C388.253 439.212 365.505 400.019 358.461 358.52C351.402 316.935 360.12 273.101 393.192 241.183Z" stroke="#20877D"/>
<path d="M316.921 297.284C311.002 386.556 264.91 447.956 147.64 440.054C162.629 347.484 213.95 294.323 316.921 297.284Z" stroke="#20877D" stroke-miterlimit="10"/>
</g>
<defs>
<filter id="filter0_b_183_2446" x="-9.99805" y="-89.0002" width="713.256" height="688.808" filterUnits="userSpaceOnUse" color-interpolation-filters="sRGB">
<feFlood flood-opacity="0" result="BackgroundImageFix"/>
<feGaussianBlur in="BackgroundImageFix" stdDeviation="5"/>
<feComposite in2="SourceAlpha" operator="in" result="effect1_backgroundBlur_183_2446"/>
<feBlend mode="normal" in="SourceGraphic" in2="effect1_backgroundBlur_183_2446" result="shape"/>
</filter>
<clipPath id="clip0_183_2446">
<rect width="429" height="545" fill="white" transform="translate(254.758 589.808) rotate(-126.43)"/>
</clipPath>
</defs>
</svg>
