<svg width="430" height="546" viewBox="0 0 430 546" fill="none" xmlns="http://www.w3.org/2000/svg">
<g clip-path="url(#clip0_305_4506)" filter="url(#filter0_b_305_4506)">
<mask id="path-1-inside-1_305_4506" fill="white">
<path fill-rule="evenodd" clip-rule="evenodd" d="M236.916 541.312C506.578 554.341 407.696 280.212 428.532 125.061C405.037 119.529 380.6 119.402 357.05 124.69C333.499 129.979 311.446 140.546 292.539 155.601C273.632 170.656 258.363 189.809 247.873 211.626C237.383 233.442 231.944 257.358 231.963 281.584C228.377 327.872 230.768 369.36 231.963 413.934C230.52 456.471 232.347 499.057 237.428 541.312"/>
</mask>
<path fill-rule="evenodd" clip-rule="evenodd" d="M236.916 541.312C506.578 554.341 407.696 280.212 428.532 125.061C405.037 119.529 380.6 119.402 357.05 124.69C333.499 129.979 311.446 140.546 292.539 155.601C273.632 170.656 258.363 189.809 247.873 211.626C237.383 233.442 231.944 257.358 231.963 281.584C228.377 327.872 230.768 369.36 231.963 413.934C230.52 456.471 232.347 499.057 237.428 541.312" fill="white" fill-opacity="0.35"/>
<path d="M428.532 125.061L429.523 125.194L429.643 124.296L428.761 124.088L428.532 125.061ZM231.963 281.584L232.961 281.661L232.964 281.622L232.963 281.583L231.963 281.584ZM231.963 413.934L232.963 413.967L232.964 413.937L232.963 413.907L231.963 413.934ZM236.868 542.311C304.441 545.576 349.122 530.859 378.362 504.328C407.588 477.81 421.215 439.644 427.025 396.387C432.835 353.134 430.848 304.639 428.722 257.342C426.594 209.997 424.328 163.874 429.523 125.194L427.54 124.928C422.317 163.824 424.599 210.149 426.724 257.432C428.852 304.764 430.825 353.077 425.043 396.121C419.261 439.162 405.744 476.782 377.018 502.847C348.305 528.899 304.222 543.563 236.964 540.313L236.868 542.311ZM428.761 124.088C405.119 118.52 380.529 118.393 356.831 123.715L357.269 125.666C380.671 120.411 404.955 120.537 428.302 126.035L428.761 124.088ZM356.831 123.715C333.133 129.037 310.941 139.67 291.916 154.819L293.162 156.384C311.95 141.423 333.866 130.922 357.269 125.666L356.831 123.715ZM291.916 154.819C272.891 169.968 257.527 189.24 246.971 211.192L248.774 212.059C259.199 190.378 274.373 171.344 293.162 156.384L291.916 154.819ZM246.971 211.192C236.416 233.145 230.944 257.209 230.963 281.585L232.963 281.583C232.944 257.508 238.349 233.74 248.774 212.059L246.971 211.192ZM230.966 281.507C227.375 327.862 229.769 369.423 230.964 413.96L232.963 413.907C231.767 369.296 229.379 327.882 232.961 281.661L230.966 281.507ZM230.964 413.9C229.519 456.488 231.348 499.125 236.436 541.431L238.421 541.192C233.346 498.988 231.521 456.454 232.963 413.967L230.964 413.9Z" fill="url(#paint0_linear_305_4506)" mask="url(#path-1-inside-1_305_4506)"/>
<path d="M199.188 319.008C204.372 393.031 205.233 467.295 201.766 541.418C162.359 549.842 118.111 543.286 81.564 524.452C44.9035 505.56 16.0368 474.34 7.53531 433.548C6.00691 425.961 4.63116 409.905 3.57155 389.588C2.51259 369.283 1.77094 344.758 1.50416 320.259C1.23737 295.76 1.44553 271.291 2.28561 251.097C3.11707 231.11 4.56602 215.378 6.76332 207.927C42.7902 197.437 87.8325 202.408 125.406 221.384C163.056 240.399 193.147 273.444 199.188 319.008Z" fill="white" fill-opacity="0.35" stroke="url(#paint1_linear_305_4506)"/>
<path d="M199.344 224.324C131.032 166.549 109.002 93.0024 184.999 3.34058C250.578 70.3727 262.875 143.234 199.344 224.324Z" fill="white" fill-opacity="0.35" stroke="url(#paint2_linear_305_4506)" stroke-miterlimit="10"/>
</g>
<defs>
<filter id="filter0_b_305_4506" x="-9.10205" y="-9.4021" width="449" height="565" filterUnits="userSpaceOnUse" color-interpolation-filters="sRGB">
<feFlood flood-opacity="0" result="BackgroundImageFix"/>
<feGaussianBlur in="BackgroundImageFix" stdDeviation="5"/>
<feComposite in2="SourceAlpha" operator="in" result="effect1_backgroundBlur_305_4506"/>
<feBlend mode="normal" in="SourceGraphic" in2="effect1_backgroundBlur_305_4506" result="shape"/>
</filter>
<linearGradient id="paint0_linear_305_4506" x1="286.758" y1="122.332" x2="447.476" y2="500.605" gradientUnits="userSpaceOnUse">
<stop stop-color="white"/>
<stop offset="0.515625" stop-color="white" stop-opacity="0"/>
<stop offset="1" stop-color="white" stop-opacity="0.6"/>
</linearGradient>
<linearGradient id="paint1_linear_305_4506" x1="-42.0407" y1="241.91" x2="208.348" y2="501.514" gradientUnits="userSpaceOnUse">
<stop stop-color="white"/>
<stop offset="0.515625" stop-color="white" stop-opacity="0"/>
<stop offset="1" stop-color="white" stop-opacity="0.6"/>
</linearGradient>
<linearGradient id="paint2_linear_305_4506" x1="131.519" y1="34.6669" x2="252.772" y2="223.065" gradientUnits="userSpaceOnUse">
<stop stop-color="white"/>
<stop offset="0.515625" stop-color="white" stop-opacity="0"/>
<stop offset="1" stop-color="white" stop-opacity="0.6"/>
</linearGradient>
<clipPath id="clip0_305_4506">
<rect width="429" height="545" fill="white" transform="translate(0.897949 0.5979)"/>
</clipPath>
</defs>
</svg>
