<svg width="113" height="78" viewBox="0 0 113 78" fill="none" xmlns="http://www.w3.org/2000/svg">
<g clip-path="url(#clip0_183_1761)">
<path fill-rule="evenodd" clip-rule="evenodd" d="M112.77 76.38L77.42 0.56C77.3383 0.393217 77.2117 0.252486 77.0546 0.153576C76.8974 0.0546669 76.7157 0.0014883 76.53 0H1C0.734784 0 0.48043 0.105357 0.292893 0.292893C0.105357 0.48043 0 0.734784 0 1V36.43C0.00456633 36.628 0.0678307 36.8202 0.181771 36.9822C0.295712 37.1442 0.455195 37.2687 0.64 37.34L111.55 77.71C111.731 77.7652 111.923 77.7682 112.105 77.7186C112.287 77.669 112.452 77.5688 112.579 77.4297C112.707 77.2906 112.793 77.1181 112.826 76.9324C112.86 76.7466 112.841 76.5551 112.77 76.38ZM3.15012 6.08005H4.90012V1.90005H6.46012V11.6601H4.90012V7.48005H3.15012V11.6601H1.62012V1.90005H3.15012V6.08005ZM25.2101 1.90005V11.6601H23.8301V4.78005L23.2101 7.18005L21.9201 11.6601H20.3401V1.90005H21.7101V8.05005L22.2701 5.90005L23.5301 1.90005H25.2101ZM19.2901 13.0001H17.7901L17.7801 11.6601H13.7801V1.90005H15.3101V10.2701H17.0601V1.90005H18.6201V10.3001H19.2901V13.0001ZM7.43012 11.6601L9.00012 1.90005H11.2401L12.8201 11.6601H11.2701L11.0001 9.89005H9.11012L8.84012 11.6601H7.43012ZM10.0001 3.63005L9.30012 8.57005H10.7401L10.0001 3.63005ZM52.4901 5.57005H53.2101V5.56005C54.7501 5.56005 55.5001 6.42005 55.5501 8.00005V9.25005C55.5501 10.8101 54.8001 11.6601 53.2601 11.6601H51.0001V1.90005H52.4901V5.57005ZM53.2401 10.2701C53.7301 10.2701 54.0001 10.0401 54.0001 9.35005V7.92005C54.0001 7.22005 53.7301 7.00005 53.2401 7.00005H52.5201V10.2701H53.2401ZM64.1901 5.56005H64.9101C66.4501 5.56005 67.2001 6.42005 67.2001 8.00005V9.25005C67.2001 10.8101 66.4501 11.6601 64.9101 11.6601H62.6601V1.90005H64.1901V5.56005ZM64.9101 10.2701C65.4001 10.2701 65.6701 10.0401 65.6701 9.35005V7.92005C65.6701 7.22005 65.4001 7.00005 64.9101 7.00005H64.1901V10.2701H64.9101ZM69.6201 11.6601H68.0801V1.90005H69.6201V11.6601ZM75.0801 1.90005V3.29005H72.3801V6.00005H74.4901V7.41005H72.3801V10.2701H75.0001V11.6601H70.8501V1.90005H75.0801ZM58.1201 6.08005H59.8701V1.90005H61.4301V11.6601H59.8701V7.48005H58.1201V11.6601H56.5901V1.90005H58.1201V6.08005ZM38.0001 11.6601L39.5601 1.90005H41.8001L43.3701 11.6601H41.8101L41.5501 9.89005H39.6701L39.4001 11.6601H38.0001ZM40.6001 3.63005L39.8601 8.57005H41.3401L40.6001 3.63005ZM37.0001 1.90005V11.6601H35.4401V7.48005H33.6901V11.6601H32.1601V1.90005H33.6901V6.08005H35.4401V1.90005H37.0001ZM29.6312 11.6414C29.3285 11.7582 29.0035 11.8055 28.6801 11.7801C28.3551 11.8087 28.0278 11.7637 27.7226 11.6484C27.4174 11.5331 27.1421 11.3504 26.9172 11.114C26.6923 10.8776 26.5237 10.5936 26.4238 10.283C26.3238 9.97236 26.2953 9.64323 26.3401 9.32005V4.24005C26.2952 3.91819 26.3235 3.59035 26.4229 3.28095C26.5223 2.97155 26.6902 2.68857 26.9142 2.45308C27.1382 2.21759 27.4124 2.03567 27.7164 1.92087C28.0204 1.80608 28.3464 1.76136 28.6701 1.79005C28.9938 1.76136 29.3198 1.80608 29.6239 1.92087C29.9279 2.03567 30.2021 2.21759 30.426 2.45308C30.65 2.68857 30.8179 2.97155 30.9173 3.28095C31.0167 3.59035 31.045 3.91819 31.0001 4.24005V9.32005C31.0445 9.64142 31.0162 9.96865 30.9174 10.2777C30.8186 10.5867 30.6518 10.8696 30.4292 11.1056C30.2066 11.3416 29.9339 11.5247 29.6312 11.6414ZM28.6801 3.14005C28.1901 3.14005 27.8801 3.45005 27.8801 4.14005V9.42005C27.8801 10.1501 28.1901 10.4201 28.6801 10.4201C29.1701 10.4201 29.4701 10.1101 29.4701 9.42005V4.14005C29.4701 3.41005 29.1701 3.14005 28.6801 3.14005ZM44.1101 10.2801C44.8601 10.2801 45.1101 10.1801 45.1101 9.28005L45.3601 1.90005H49.7001V11.6601H48.0901V3.29005H46.7501L46.5801 9.19005C46.5301 10.9801 45.8901 11.6801 44.3501 11.6801H44.1101V10.2801ZM7.69012 13.6201H10.0001C11.4801 13.6201 12.2301 14.4701 12.2801 16.0001V17.3001C12.2801 18.8601 11.5301 19.7101 10.0001 19.7101H9.22012V23.3801H7.69012V13.6201ZM10.0001 18.3201C10.4901 18.3201 10.7501 18.0901 10.7501 17.4001V15.9201C10.7501 15.2201 10.4901 15.0001 10.0001 15.0001H9.22012V18.3201H10.0001ZM3.15012 23.4001H1.67012L1.62012 13.6201H6.46012V23.3701H4.90012V15.0001H3.15012V23.4001ZM37.4301 17.3101H38.1601L38.1101 17.2901C39.6501 17.2901 40.4001 18.1401 40.4001 19.7001V20.9701C40.4001 22.5301 39.6501 23.3801 38.1101 23.3801H35.8501V13.6201H37.4301V17.3101ZM38.1601 22.0101C38.6501 22.0101 38.9101 21.7801 38.9101 21.0901V19.6001C38.9101 18.9001 38.6501 18.6801 38.1601 18.6801H37.4301V22.0101H38.1601ZM23.1801 23.3801H19.0001V13.6201H23.1601V15.0001H20.5101V17.7301H22.6201V19.1301H20.5101V22.0001H23.1801V23.3801ZM33.2901 23.3801H31.7601L31.7401 15.0001H30.1301V13.6201H34.9001V15.0001H33.2901V23.3801ZM42.8301 23.3801H41.3001L41.2801 13.6201H42.8301V23.3801ZM25.8101 17.8701L27.8101 13.6201L29.3401 13.6501L27.2101 18.0001L29.3401 23.3801H27.7701L26.2701 19.4901L25.8001 20.3801V23.3801H24.2701V13.6201H25.8101V17.8701ZM14.5345 13.6367C14.8418 13.5185 15.172 13.4718 15.5001 13.5001C15.8282 13.4718 16.1584 13.5185 16.4658 13.6367C16.7731 13.755 17.0495 13.9416 17.2741 14.1825C17.4986 14.4234 17.6653 14.7123 17.7617 15.0272C17.858 15.3421 17.8814 15.6748 17.8301 16.0001V21.0001C17.875 21.3219 17.8467 21.6498 17.7473 21.9592C17.6479 22.2686 17.48 22.5515 17.256 22.787C17.0321 23.0225 16.7579 23.2044 16.4539 23.3192C16.1498 23.434 15.8238 23.4787 15.5001 23.4501C15.1764 23.4787 14.8504 23.434 14.5464 23.3192C14.2424 23.2044 13.9682 23.0225 13.7442 22.787C13.5202 22.5515 13.3523 22.2686 13.2529 21.9592C13.1535 21.6498 13.1252 21.3219 13.1701 21.0001V16.0001C13.1188 15.6748 13.1422 15.3421 13.2386 15.0272C13.3349 14.7123 13.5017 14.4234 13.7262 14.1825C13.9507 13.9416 14.2271 13.755 14.5345 13.6367ZM15.5001 22.1401C15.9901 22.1401 16.3001 21.8301 16.3001 21.1401V15.8601C16.3001 15.1201 15.9901 14.8601 15.5001 14.8601C15.0101 14.8601 14.7101 15.1601 14.7101 15.8601V21.1401C14.7101 21.8701 15.0101 22.1401 15.5001 22.1401ZM31.5601 31.5201L32.1201 29.3701L33.3801 25.3401H35.0601V35.1001H33.6801V28.2201L33.0501 30.6201L31.7701 35.1001H30.1901V25.3401H31.5601V31.5201ZM25.4801 31.5201L26.0401 29.3701L27.2901 25.3401H29.0001V35.1001H27.6301V28.2201L27.0001 30.6201L25.6901 35.1001H24.1101V25.3401H25.4801V31.5201ZM12.8301 27.6801C12.8301 26.1201 13.6101 25.2201 15.1101 25.2201C16.6201 25.2201 17.4001 26.1201 17.4001 27.6801V28.6301H16.0001V27.5801C16.0001 26.8401 15.6901 26.5801 15.2001 26.5801C14.7101 26.5801 14.4001 26.8801 14.4001 27.5801V32.8601C14.4001 33.5501 14.7101 33.8001 15.2001 33.8001C15.6901 33.8001 16.0001 33.5501 16.0001 32.8601V31.4601H17.4001V32.7601C17.4499 33.0793 17.4264 33.4057 17.3313 33.7146C17.2363 34.0234 17.0723 34.3065 16.8516 34.5426C16.631 34.7787 16.3595 34.9614 16.0578 35.0771C15.7561 35.1927 15.432 35.2382 15.1101 35.2101C13.6101 35.2101 12.8301 34.3201 12.8301 32.7601V27.6801ZM18.4401 27.6801C18.4401 26.1201 19.2201 25.2201 20.7301 25.2201C22.2401 25.2201 23.0001 26.1201 23.0001 27.6801V28.6301H21.5701V27.5801C21.5701 26.8401 21.2601 26.5801 20.7701 26.5801C20.2801 26.5801 19.9801 26.8801 19.9801 27.5801V32.8601C19.9801 33.5501 20.2801 33.8001 20.7701 33.8001C21.2601 33.8001 21.5701 33.5501 21.5701 32.8601V31.4601H23.0001V32.7601C23.0493 33.0775 23.0261 33.402 22.9322 33.7092C22.8383 34.0165 22.6761 34.2985 22.4577 34.5341C22.2394 34.7698 21.9705 34.953 21.6714 35.07C21.3722 35.1871 21.0504 35.235 20.7301 35.2101C20.4082 35.2382 20.0841 35.1927 19.7824 35.0771C19.4807 34.9614 19.2092 34.7787 18.9886 34.5426C18.768 34.3065 18.6039 34.0234 18.5089 33.7146C18.4139 33.4057 18.3903 33.0793 18.4401 32.7601V27.6801ZM8.479 25.3587C8.78169 25.2419 9.1067 25.1946 9.43012 25.2201C9.75433 25.193 10.0805 25.2392 10.3844 25.3552C10.6884 25.4712 10.9624 25.6541 11.1861 25.8903C11.4098 26.1265 11.5776 26.41 11.6769 26.7198C11.7763 27.0296 11.8047 27.3578 11.7601 27.6801V32.7601C11.805 33.0819 11.7767 33.4098 11.6773 33.7192C11.5779 34.0286 11.41 34.3115 11.186 34.547C10.9621 34.7825 10.6879 34.9644 10.3839 35.0792C10.0798 35.194 9.75382 35.2387 9.43012 35.2101C9.10721 35.2371 8.78234 35.1912 8.47958 35.0757C8.17682 34.9602 7.90393 34.7781 7.68113 34.5428C7.45832 34.3075 7.29131 34.0251 7.19247 33.7165C7.09362 33.4079 7.06548 33.081 7.11012 32.7601V27.6801C7.06576 27.3587 7.09402 27.0315 7.19283 26.7225C7.29164 26.4134 7.45847 26.1305 7.68105 25.8945C7.90364 25.6585 8.1763 25.4754 8.479 25.3587ZM9.43012 33.8601C9.92012 33.8601 10.2301 33.5501 10.2301 32.8601V27.5801C10.2301 26.8401 9.91012 26.5801 9.43012 26.5801C8.95012 26.5801 8.64012 26.8801 8.64012 27.5801V32.8601C8.64012 33.5901 8.94012 33.8601 9.43012 33.8601ZM1.62012 25.3401H3.88012C5.41012 25.3401 6.17012 26.1901 6.17012 27.7501V29.0201C6.17012 30.5801 5.41012 31.4301 3.88012 31.4301H3.15012V35.1001H1.62012V25.3401ZM3.88012 30.0401C4.37012 30.0401 4.63012 29.8101 4.63012 29.1201V27.6501C4.63012 26.9501 4.37012 26.7301 3.88012 26.7301H3.15012V30.0401H3.88012Z" fill="white"/>
</g>
<defs>
<clipPath id="clip0_183_1761">
<rect width="112.87" height="77.77" fill="white"/>
</clipPath>
</defs>
</svg>
