<svg width="0" height="0" class="hidden">
  <symbol  xmlns="http://www.w3.org/2000/svg" viewBox="0 0 25 26" id="arrow-left">
    <path d="M23 13.0001L3 13M3 13L13.6734 3M3 13L13.6734 23"  stroke-width="3" stroke-linecap="square"></path>
  </symbol>
  <symbol  xmlns="http://www.w3.org/2000/svg" viewBox="0 0 18 18" id="calendar">
    <path d="M16.5 18H1.5C0.67 18 0 17.33 0 16.5V3.5C0 2.67 0.67 2 1.5 2H16.5C17.33 2 18 2.67 18 3.5V16.5C18 17.33 17.33 18 16.5 18ZM1.5 3C1.22 3 1 3.22 1 3.5V16.5C1 16.78 1.22 17 1.5 17H16.5C16.78 17 17 16.78 17 16.5V3.5C17 3.22 16.78 3 16.5 3H1.5Z" ></path>
    <path d="M17.5 8H0.5C0.22 8 0 7.78 0 7.5C0 7.22 0.22 7 0.5 7H17.5C17.78 7 18 7.22 18 7.5C18 7.78 17.78 8 17.5 8Z" ></path>
    <path d="M4.5 5C4.22 5 4 4.78 4 4.5V0.5C4 0.22 4.22 0 4.5 0C4.78 0 5 0.22 5 0.5V4.5C5 4.78 4.78 5 4.5 5Z" ></path>
    <path d="M13.5 5C13.22 5 13 4.78 13 4.5V0.5C13 0.22 13.22 0 13.5 0C13.78 0 14 0.22 14 0.5V4.5C14 4.78 13.78 5 13.5 5Z" ></path>
  </symbol>
  <symbol  xmlns="http://www.w3.org/2000/svg" viewBox="0 0 25 26" id="arrow-right">
    <path d="M2 13.0001L22 13M22 13L11.3266 3M22 13L11.3266 23"  stroke-width="3" stroke-linecap="square"></path>
  </symbol>
  <symbol  xmlns="http://www.w3.org/2000/svg" viewBox="0 0 24 24" id="chevron-down">
    <path fill-rule="evenodd" clip-rule="evenodd" d="M12.0002 15.5C11.7442 15.5 11.4883 15.402 11.2933 15.207L7.29325 11.207C6.90225 10.816 6.90225 10.184 7.29325 9.79301C7.68425 9.40201 8.31625 9.40201 8.70725 9.79301L12.0122 13.098L15.3053 9.91801C15.7043 9.53501 16.3352 9.54601 16.7192 9.94301C17.1032 10.34 17.0922 10.974 16.6952 11.357L12.6953 15.219C12.5002 15.407 12.2502 15.5 12.0002 15.5Z" ></path>
  </symbol>
  <symbol  xmlns="http://www.w3.org/2000/svg" viewBox="0 0 25 24" id="chevron-right">
    <path fill-rule="evenodd" clip-rule="evenodd" d="M11.0999 17C10.8439 17 10.5879 16.902 10.3929 16.707C10.0019 16.316 10.0019 15.684 10.3929 15.293L13.6979 11.988L10.5179 8.695C10.1349 8.297 10.1459 7.664 10.5429 7.281C10.9409 6.898 11.5739 6.909 11.9569 7.305L15.8189 11.305C16.1979 11.698 16.1929 12.321 15.8069 12.707L11.8069 16.707C11.6119 16.902 11.3559 17 11.0999 17Z" ></path>
  </symbol>
  <symbol  xmlns="http://www.w3.org/2000/svg" viewBox="0 0 25 24" id="chevron-left">
    <path fill-rule="evenodd" clip-rule="evenodd" d="M13.9616 17C13.6996 17 13.4386 16.898 13.2426 16.695L9.37965 12.695C9.00165 12.302 9.00665 11.679 9.39265 11.293L13.3926 7.29301C13.7826 6.90201 14.4156 6.90201 14.8066 7.29301C15.1966 7.68401 15.1966 8.31601 14.8066 8.70701L11.5016 12.012L14.6806 15.305C15.0646 15.703 15.0536 16.336 14.6566 16.719C14.4616 16.907 14.2116 17 13.9616 17Z" ></path>
  </symbol>
  <symbol  xmlns="http://www.w3.org/2000/svg" viewBox="0 0 16 16" id="close">
    <path d="M2.16545 14.1654L13.8323 2.49862M13.8323 14.1654L2.16545 2.49862"  stroke-width="1.5" stroke-linecap="round"></path>
  </symbol>
  <symbol  xmlns="http://www.w3.org/2000/svg" viewBox="0 0 24 24" id="eye">
    <path fill-rule="evenodd" clip-rule="evenodd" d="M1.05695 12.264C3.21608 17.0344 7.42227 20 12.0371 20C16.6519 20 20.858 17.0344 23.0171 12.264C23.0547 12.1811 23.0742 12.0911 23.0742 12C23.0742 11.9089 23.0547 11.8189 23.0171 11.736C20.858 6.96565 16.6519 4 12.0371 4C7.42227 4 3.22693 6.96565 1.05695 11.736C1.0194 11.8189 1 11.9089 1 12C1 12.0911 1.0194 12.1811 1.05695 12.264ZM9.65757 15.5566C10.3618 16.0273 11.1899 16.2785 12.037 16.2785C13.1718 16.2776 14.2598 15.8266 15.0626 15.0246C15.8653 14.2225 16.3171 13.1348 16.319 12.0001C16.3197 11.153 16.0692 10.3247 15.5991 9.62008C15.1291 8.91541 14.4606 8.36601 13.6782 8.04135C12.8958 7.7167 12.0347 7.63138 11.2038 7.7962C10.3729 7.96101 9.60958 8.36856 9.01036 8.96728C8.41114 9.56599 8.00294 10.329 7.83742 11.1597C7.67191 11.9905 7.75651 12.8516 8.08051 13.6343C8.4045 14.417 8.95331 15.0859 9.65757 15.5566Z" ></path>
  </symbol>
  <symbol  xmlns="http://www.w3.org/2000/svg" viewBox="0 0 24 24" id="person">
    <path d="M12.0833 13.7162C10.9245 13.7169 9.79154 13.3739 8.82772 12.7306C7.8639 12.0874 7.11253 11.1727 6.66861 10.1023C6.22469 9.03197 6.10818 7.85398 6.33382 6.71739C6.55946 5.5808 7.1171 4.53667 7.93623 3.71705C8.75536 2.89743 9.79919 2.33914 10.9356 2.11282C12.0721 1.8865 13.2502 2.00231 14.3208 2.44559C15.3914 2.88887 16.3065 3.63973 16.9504 4.60316C17.5942 5.5666 17.9379 6.69934 17.9379 7.85811C17.936 9.4106 17.3187 10.899 16.2213 11.9971C15.1238 13.0953 13.6358 13.7134 12.0833 13.7162Z" ></path>
    <path d="M19.0302 22.0266H5.13206C4.75476 22.0296 4.38369 21.9306 4.058 21.7401C3.73232 21.5496 3.4641 21.2747 3.28175 20.9444C3.09195 20.6141 2.99469 20.2387 3.00022 19.8578C3.00575 19.4769 3.11389 19.1045 3.3132 18.7799C4.80042 16.3117 8.24266 14.7162 12.0829 14.7162C15.9231 14.7162 19.3619 16.3117 20.8491 18.7799C21.0458 19.1034 21.153 19.4733 21.1598 19.8519C21.1666 20.2304 21.0726 20.604 20.8876 20.9343C20.7025 21.2646 20.433 21.5398 20.1067 21.7318C19.7803 21.9237 19.4088 22.0255 19.0302 22.0266Z" ></path>
  </symbol>
  <symbol  xmlns="http://www.w3.org/2000/svg" viewBox="0 0 19 19" id="search">
    <path d="M8 16C3.59 16 0 12.41 0 8C0 3.59 3.59 0 8 0C12.41 0 16 3.59 16 8C16 12.41 12.41 16 8 16ZM8 1C4.14 1 1 4.14 1 8C1 11.86 4.14 15 8 15C11.86 15 15 11.86 15 8C15 4.14 11.86 1 8 1Z" ></path>
    <path d="M18 18.5C17.87 18.5 17.74 18.45 17.65 18.35L13.65 14.35C13.45 14.15 13.45 13.84 13.65 13.64C13.85 13.44 14.16 13.44 14.36 13.64L18.36 17.64C18.56 17.84 18.56 18.15 18.36 18.35C18.26 18.45 18.13 18.5 18 18.5Z" ></path>
  </symbol>
  <symbol  xmlns="http://www.w3.org/2000/svg" viewBox="0 0 24 24" id="vk">
    <path fill-rule="evenodd" clip-rule="evenodd" d="M3.40589 3.40589C2 4.81177 2 7.07452 2 11.6V12.4C2 16.9255 2 19.1882 3.40589 20.5941C4.81177 22 7.07452 22 11.6 22H12.4C16.9255 22 19.1882 22 20.5941 20.5941C22 19.1882 22 16.9255 22 12.4V11.6C22 7.07452 22 4.81177 20.5941 3.40589C19.1882 2 16.9255 2 12.4 2H11.6C7.07452 2 4.81177 2 3.40589 3.40589ZM5.33301 8.125C5.44008 13.3275 8.17274 16.4583 12.6768 16.4583H12.9381V13.482C14.5785 13.6485 15.8018 14.8749 16.3012 16.4583H18.6663C18.0247 14.0896 16.3612 12.78 15.3272 12.2797C16.3604 11.6609 17.8226 10.1607 18.167 8.125H16.0152C15.5637 9.78046 14.2206 11.2806 12.9373 11.4231V8.125H10.7512V13.8991C9.42082 13.5661 7.68534 11.9466 7.61422 8.125H5.33301Z" ></path>
  </symbol>
  <symbol  xmlns="http://www.w3.org/2000/svg" viewBox="0 0 24 24" id="youtube">
    <path d="M23.0645 5.00478C22.1982 3.97495 20.5987 3.55487 17.5441 3.55487H6.45569C3.33112 3.55487 1.70454 4.00205 0.841471 5.09846C0 6.16746 0 7.74256 0 9.92254V14.0776C0 18.3009 0.9984 20.4451 6.45569 20.4451H17.5442C20.1931 20.4451 21.661 20.0745 22.6106 19.1656C23.5845 18.2337 24 16.712 24 14.0776V9.92254C24 7.62357 23.9349 6.03918 23.0645 5.00478ZM15.4081 12.5737L10.3729 15.2052C10.2603 15.2641 10.1372 15.2933 10.0143 15.2933C9.87507 15.2933 9.73618 15.2558 9.61316 15.1813C9.38152 15.041 9.24008 14.7899 9.24008 14.5191V9.27283C9.24008 9.00248 9.38113 8.75164 9.61231 8.61121C9.84356 8.47077 10.1312 8.46117 10.3711 8.58581L15.4063 11.2004C15.6625 11.3334 15.8234 11.5979 15.8237 11.8864C15.8241 12.1752 15.6639 12.4401 15.4081 12.5737Z" ></path>
  </symbol>
  <symbol  xmlns="http://www.w3.org/2000/svg" viewBox="0 0 21 18" id="telegram">
    <path d="M18.6646 0.717064L0.934606 7.55406C-0.275394 8.04006 -0.268393 8.71506 0.712607 9.01606L5.26461 10.4361L15.7966 3.79106C16.2946 3.48806 16.7496 3.65106 16.3756 3.98306L7.84261 11.6841H7.84061L7.84261 11.6851L7.52861 16.3771C7.98861 16.3771 8.19161 16.1661 8.44961 15.9171L10.6606 13.7671L15.2596 17.1641C16.1076 17.6311 16.7166 17.3911 16.9276 16.3791L19.9466 2.15106C20.2556 0.912064 19.4736 0.351064 18.6646 0.717064Z"></path>
  </symbol>
  <symbol xmlns="http://www.w3.org/2000/svg" viewBox="0 0 442.04 442.04" id="eye-stroke">
    <g>
      <g>
        <path d="M221.02,341.304c-49.708,0-103.206-19.44-154.71-56.22C27.808,257.59,4.044,230.351,3.051,229.203
			c-4.068-4.697-4.068-11.669,0-16.367c0.993-1.146,24.756-28.387,63.259-55.881c51.505-36.777,105.003-56.219,154.71-56.219
			c49.708,0,103.207,19.441,154.71,56.219c38.502,27.494,62.266,54.734,63.259,55.881c4.068,4.697,4.068,11.669,0,16.367
			c-0.993,1.146-24.756,28.387-63.259,55.881C324.227,321.863,270.729,341.304,221.02,341.304z M29.638,221.021
			c9.61,9.799,27.747,27.03,51.694,44.071c32.83,23.361,83.714,51.212,139.688,51.212s106.859-27.851,139.688-51.212
			c23.944-17.038,42.082-34.271,51.694-44.071c-9.609-9.799-27.747-27.03-51.694-44.071
			c-32.829-23.362-83.714-51.212-139.688-51.212s-106.858,27.85-139.688,51.212C57.388,193.988,39.25,211.219,29.638,221.021z"></path>
      </g>
      <g>
        <path d="M221.02,298.521c-42.734,0-77.5-34.767-77.5-77.5c0-42.733,34.766-77.5,77.5-77.5c18.794,0,36.924,6.814,51.048,19.188
			c5.193,4.549,5.715,12.446,1.166,17.639c-4.549,5.193-12.447,5.714-17.639,1.166c-9.564-8.379-21.844-12.993-34.576-12.993
			c-28.949,0-52.5,23.552-52.5,52.5s23.551,52.5,52.5,52.5c28.95,0,52.5-23.552,52.5-52.5c0-6.903,5.597-12.5,12.5-12.5
			s12.5,5.597,12.5,12.5C298.521,263.754,263.754,298.521,221.02,298.521z"></path>
      </g>
      <g>
        <path d="M221.02,246.021c-13.785,0-25-11.215-25-25s11.215-25,25-25c13.786,0,25,11.215,25,25S234.806,246.021,221.02,246.021z"></path>
      </g>
    </g>
  </symbol>
  <symbol xmlns="http://www.w3.org/2000/svg" viewBox="0 0 24 24" id="filter">
    <path fill-rule="evenodd" clip-rule="evenodd" d="M5.625 8.8125C5.625 7.88052 6.38052 7.125 7.3125 7.125C8.24448 7.125 9 7.88052 9 8.8125C9 9.74448 8.24448 10.5 7.3125 10.5C6.38052 10.5 5.625 9.74448 5.625 8.8125ZM4.55626 9.375H2.8125C2.50184 9.375 2.25 9.12316 2.25 8.8125C2.25 8.50184 2.50184 8.25 2.8125 8.25H4.55626C4.81685 6.96624 5.95184 6 7.3125 6C8.67316 6 9.80815 6.96624 10.0687 8.25H20.8125C21.1232 8.25 21.375 8.50184 21.375 8.8125C21.375 9.12316 21.1232 9.375 20.8125 9.375H10.0687C9.80815 10.6588 8.67316 11.625 7.3125 11.625C5.95184 11.625 4.81685 10.6588 4.55626 9.375Z" ></path>
    <path fill-rule="evenodd" clip-rule="evenodd" d="M18 14.4375C18 13.5055 17.2445 12.75 16.3125 12.75C15.3805 12.75 14.625 13.5055 14.625 14.4375C14.625 15.3695 15.3805 16.125 16.3125 16.125C17.2445 16.125 18 15.3695 18 14.4375ZM19.0687 15H20.8125C21.1232 15 21.375 14.7482 21.375 14.4375C21.375 14.1268 21.1232 13.875 20.8125 13.875H19.0687C18.8082 12.5912 17.6732 11.625 16.3125 11.625C14.9518 11.625 13.8168 12.5912 13.5563 13.875H2.8125C2.50184 13.875 2.25 14.1268 2.25 14.4375C2.25 14.7482 2.50184 15 2.8125 15H13.5563C13.8168 16.2838 14.9518 17.25 16.3125 17.25C17.6732 17.25 18.8082 16.2838 19.0687 15Z" ></path>
  </symbol>
  <symbol xmlns="http://www.w3.org/2000/svg" viewBox="0 0 16 18" id="person-stroke">
    <path d="M8.00307 10.5305C6.98213 10.5312 5.98395 10.2229 5.13477 9.64471C4.2856 9.06653 3.62361 8.24443 3.23249 7.28238C2.84137 6.32033 2.73872 5.26156 2.93752 4.23999C3.13632 3.21842 3.62763 2.27996 4.34933 1.54328C5.07102 0.806606 5.99069 0.304819 6.99196 0.101403C7.99324 -0.102013 9.03116 0.00207269 9.97444 0.400496C10.9177 0.798919 11.724 1.47379 12.2912 2.33973C12.8585 3.20566 13.1613 4.22377 13.1613 5.26527C13.1597 6.66065 12.6158 7.99846 11.6488 8.98544C10.6819 9.97242 9.37089 10.528 8.00307 10.5305ZM8.00307 1.11707C7.19701 1.11707 6.40904 1.36091 5.73883 1.81775C5.06862 2.2746 4.54628 2.92393 4.23781 3.68363C3.92935 4.44334 3.84863 5.2793 4.00588 6.0858C4.16314 6.8923 4.55129 7.63311 5.12126 8.21456C5.69123 8.79602 6.4174 9.192 7.20797 9.35242C7.99854 9.51284 8.81799 9.43051 9.5627 9.11583C10.3074 8.80115 10.9439 8.26826 11.3917 7.58454C11.8395 6.90082 12.0786 6.09698 12.0786 5.27468C12.0794 4.72802 11.9746 4.18656 11.7702 3.68123C11.5657 3.1759 11.2657 2.71663 10.8872 2.32964C10.5088 1.94266 10.0592 1.63555 9.56435 1.42587C9.06946 1.2162 8.53893 1.10807 8.00307 1.10766V1.11707Z" ></path>
    <path d="M14.1234 17.9999H1.87845C1.54603 18.0026 1.2191 17.9136 0.932152 17.7424C0.645206 17.5712 0.408894 17.3241 0.248232 17.0272C0.0810093 16.7303 -0.00467487 16.393 0.000196733 16.0506C0.00506833 15.7082 0.100343 15.3736 0.275942 15.0818C1.58626 12.8633 4.61904 11.4293 8.00248 11.4293C11.3859 11.4293 14.4156 12.8633 15.7259 15.0818C15.8993 15.3725 15.9937 15.705 15.9997 16.0453C16.0057 16.3855 15.9229 16.7213 15.7598 17.0182C15.5968 17.3151 15.3594 17.5624 15.0718 17.7349C14.7843 17.9074 14.457 17.9989 14.1234 17.9999ZM8.00248 12.537C5.03736 12.537 2.30597 13.7921 1.20482 15.656C1.13169 15.7813 1.09312 15.9244 1.09312 16.0702C1.09312 16.216 1.13169 16.3591 1.20482 16.4844C1.27248 16.6091 1.37194 16.7129 1.49269 16.7847C1.61344 16.8565 1.751 16.8937 1.89076 16.8923H14.1357C14.2756 16.8944 14.4134 16.8575 14.5343 16.7856C14.6551 16.7137 14.7545 16.6096 14.8216 16.4844C14.8948 16.3591 14.9334 16.216 14.9334 16.0702C14.9334 15.9244 14.8948 15.7813 14.8216 15.656C13.6959 13.789 10.9645 12.537 8.00248 12.537Z" ></path>
  </symbol>
</svg>