<svg width="515" height="472" viewBox="0 0 515 472" fill="none" xmlns="http://www.w3.org/2000/svg">
<g clip-path="url(#clip0_183_1748)" filter="url(#filter0_b_183_1748)">
<mask id="path-1-inside-1_183_1748" fill="white">
<path fill-rule="evenodd" clip-rule="evenodd" d="M168.541 586.51C422.025 679.425 409.462 388.279 475.652 246.417C454.88 234.124 431.594 226.71 407.539 224.729C383.483 222.748 359.281 226.252 336.743 234.978C314.205 243.705 293.915 257.427 277.392 275.119C260.869 292.811 248.54 314.014 241.329 337.141C224.091 380.249 213.992 420.56 201.83 463.459C187.757 503.627 176.791 544.817 169.03 586.663"/>
</mask>
<path fill-rule="evenodd" clip-rule="evenodd" d="M168.541 586.51C422.025 679.425 409.462 388.279 475.652 246.417C454.88 234.124 431.594 226.71 407.539 224.729C383.483 222.748 359.281 226.252 336.743 234.978C314.205 243.705 293.915 257.427 277.392 275.119C260.869 292.811 248.54 314.014 241.329 337.141C224.091 380.249 213.992 420.56 201.83 463.459C187.757 503.627 176.791 544.817 169.03 586.663" fill="white" fill-opacity="0.2"/>
<path d="M475.652 246.417L476.558 246.84L476.942 246.018L476.162 245.556L475.652 246.417ZM241.329 337.141L242.257 337.512L242.272 337.476L242.284 337.439L241.329 337.141ZM201.83 463.459L202.773 463.79L202.783 463.761L202.792 463.732L201.83 463.459ZM168.197 587.449C231.717 610.732 278.753 610.021 314.578 593.426C350.387 576.839 374.783 544.479 393.238 504.928C411.692 465.38 424.269 418.501 436.355 372.726C448.454 326.903 460.057 282.206 476.558 246.84L474.746 245.994C458.152 281.558 446.505 326.453 434.422 372.215C422.326 418.025 409.791 464.725 391.426 504.082C373.063 543.436 348.934 575.308 313.738 591.611C278.558 607.907 232.108 608.746 168.885 585.571L168.197 587.449ZM476.162 245.556C455.259 233.187 431.827 225.726 407.621 223.733L407.457 225.726C431.361 227.694 454.501 235.062 475.143 247.277L476.162 245.556ZM407.621 223.733C383.414 221.739 359.061 225.265 336.382 234.046L337.104 235.911C359.501 227.239 383.552 223.758 407.457 225.726L407.621 223.733ZM336.382 234.046C313.703 242.827 293.287 256.635 276.661 274.436L278.123 275.802C294.543 258.22 314.707 244.583 337.104 235.911L336.382 234.046ZM276.661 274.436C260.035 292.238 247.63 313.573 240.374 336.843L242.284 337.439C249.45 314.455 261.702 293.383 278.123 275.802L276.661 274.436ZM240.4 336.77C223.138 379.94 213.019 420.323 200.868 463.186L202.792 463.732C214.964 420.797 225.045 380.558 242.257 337.512L240.4 336.77ZM200.886 463.128C186.796 503.345 175.817 544.584 168.047 586.481L170.013 586.846C177.765 545.05 188.718 503.909 202.773 463.79L200.886 463.128Z" fill="url(#paint0_linear_183_1748)" mask="url(#path-1-inside-1_183_1748)"/>
<path d="M198.879 363.078C181.734 435.274 160.392 506.411 134.962 576.122C94.8367 572.4 54.5619 552.938 25.3011 524.055C-4.05031 495.082 -22.2838 456.67 -18.2239 415.2C-17.4182 407.502 -13.9394 391.768 -8.88714 372.06C-3.83796 352.365 2.77349 328.736 9.83052 305.274C16.8877 281.811 24.389 258.52 31.2176 239.497C37.9761 220.669 44.0542 206.087 48.3752 199.631C85.8907 200.371 127.397 218.558 157.594 247.883C187.854 277.268 206.712 317.788 198.879 363.078Z" fill="white" fill-opacity="0.2" stroke="url(#paint1_linear_183_1748)"/>
<path d="M227.286 272.756C179.33 197.227 180.253 120.457 279.546 57.5621C322.131 141.111 312.122 214.322 227.286 272.756Z" fill="white" fill-opacity="0.2" stroke="url(#paint2_linear_183_1748)" stroke-miterlimit="10"/>
</g>
<defs>
<filter id="filter0_b_183_1748" x="-67.9998" y="-10" width="592.102" height="668.196" filterUnits="userSpaceOnUse" color-interpolation-filters="sRGB">
<feFlood flood-opacity="0" result="BackgroundImageFix"/>
<feGaussianBlur in="BackgroundImageFix" stdDeviation="5"/>
<feComposite in2="SourceAlpha" operator="in" result="effect1_backgroundBlur_183_1748"/>
<feBlend mode="normal" in="SourceGraphic" in2="effect1_backgroundBlur_183_1748" result="shape"/>
</filter>
<linearGradient id="paint0_linear_183_1748" x1="341.154" y1="201.5" x2="381.654" y2="610.5" gradientUnits="userSpaceOnUse">
<stop stop-color="white"/>
<stop offset="0.515625" stop-color="white" stop-opacity="0"/>
<stop offset="1" stop-color="white" stop-opacity="0.6"/>
</linearGradient>
<linearGradient id="paint1_linear_183_1748" x1="-8.34692" y1="217.5" x2="153.153" y2="540" gradientUnits="userSpaceOnUse">
<stop stop-color="white"/>
<stop offset="0.515625" stop-color="white" stop-opacity="0"/>
<stop offset="1" stop-color="white" stop-opacity="0.6"/>
</linearGradient>
<linearGradient id="paint2_linear_183_1748" x1="219.154" y1="71.5" x2="278.654" y2="287.5" gradientUnits="userSpaceOnUse">
<stop stop-color="white"/>
<stop offset="0.515625" stop-color="white" stop-opacity="0"/>
<stop offset="1" stop-color="white" stop-opacity="0.6"/>
</linearGradient>
<clipPath id="clip0_183_1748">
<rect width="429" height="545" fill="white" transform="translate(104.653) rotate(17.3643)"/>
</clipPath>
</defs>
</svg>
