<svg width="0" height="0" class="hidden">
  <symbol  xmlns="http://www.w3.org/2000/svg" viewBox="0 0 25 26" id="arrow-left">
    <path d="M23 13.0001L3 13M3 13L13.6734 3M3 13L13.6734 23"  stroke-width="3" stroke-linecap="square"></path>
  </symbol>
  <symbol  xmlns="http://www.w3.org/2000/svg" viewBox="0 0 18 18" id="calendar">
    <path d="M16.5 18H1.5C0.67 18 0 17.33 0 16.5V3.5C0 2.67 0.67 2 1.5 2H16.5C17.33 2 18 2.67 18 3.5V16.5C18 17.33 17.33 18 16.5 18ZM1.5 3C1.22 3 1 3.22 1 3.5V16.5C1 16.78 1.22 17 1.5 17H16.5C16.78 17 17 16.78 17 16.5V3.5C17 3.22 16.78 3 16.5 3H1.5Z" ></path>
    <path d="M17.5 8H0.5C0.22 8 0 7.78 0 7.5C0 7.22 0.22 7 0.5 7H17.5C17.78 7 18 7.22 18 7.5C18 7.78 17.78 8 17.5 8Z" ></path>
    <path d="M4.5 5C4.22 5 4 4.78 4 4.5V0.5C4 0.22 4.22 0 4.5 0C4.78 0 5 0.22 5 0.5V4.5C5 4.78 4.78 5 4.5 5Z" ></path>
    <path d="M13.5 5C13.22 5 13 4.78 13 4.5V0.5C13 0.22 13.22 0 13.5 0C13.78 0 14 0.22 14 0.5V4.5C14 4.78 13.78 5 13.5 5Z" ></path>
  </symbol>
  <symbol  xmlns="http://www.w3.org/2000/svg" viewBox="0 0 25 26" id="arrow-right">
    <path d="M2 13.0001L22 13M22 13L11.3266 3M22 13L11.3266 23"  stroke-width="3" stroke-linecap="square"></path>
  </symbol>
  <symbol  xmlns="http://www.w3.org/2000/svg" viewBox="0 0 24 24" id="chevron-down">
    <path fill-rule="evenodd" clip-rule="evenodd" d="M12.0002 15.5C11.7442 15.5 11.4883 15.402 11.2933 15.207L7.29325 11.207C6.90225 10.816 6.90225 10.184 7.29325 9.79301C7.68425 9.40201 8.31625 9.40201 8.70725 9.79301L12.0122 13.098L15.3053 9.91801C15.7043 9.53501 16.3352 9.54601 16.7192 9.94301C17.1032 10.34 17.0922 10.974 16.6952 11.357L12.6953 15.219C12.5002 15.407 12.2502 15.5 12.0002 15.5Z" ></path>
  </symbol>
  <symbol  xmlns="http://www.w3.org/2000/svg" viewBox="0 0 25 24" id="chevron-right">
    <path fill-rule="evenodd" clip-rule="evenodd" d="M11.0999 17C10.8439 17 10.5879 16.902 10.3929 16.707C10.0019 16.316 10.0019 15.684 10.3929 15.293L13.6979 11.988L10.5179 8.695C10.1349 8.297 10.1459 7.664 10.5429 7.281C10.9409 6.898 11.5739 6.909 11.9569 7.305L15.8189 11.305C16.1979 11.698 16.1929 12.321 15.8069 12.707L11.8069 16.707C11.6119 16.902 11.3559 17 11.0999 17Z" ></path>
  </symbol>
  <symbol  xmlns="http://www.w3.org/2000/svg" viewBox="0 0 25 24" id="chevron-left">
    <path fill-rule="evenodd" clip-rule="evenodd" d="M13.9616 17C13.6996 17 13.4386 16.898 13.2426 16.695L9.37965 12.695C9.00165 12.302 9.00665 11.679 9.39265 11.293L13.3926 7.29301C13.7826 6.90201 14.4156 6.90201 14.8066 7.29301C15.1966 7.68401 15.1966 8.31601 14.8066 8.70701L11.5016 12.012L14.6806 15.305C15.0646 15.703 15.0536 16.336 14.6566 16.719C14.4616 16.907 14.2116 17 13.9616 17Z" ></path>
  </symbol>
  <symbol  xmlns="http://www.w3.org/2000/svg" viewBox="0 0 16 16" id="close">
    <path d="M2.16545 14.1654L13.8323 2.49862M13.8323 14.1654L2.16545 2.49862"  stroke-width="1.5" stroke-linecap="round"></path>
  </symbol>
  <symbol  xmlns="http://www.w3.org/2000/svg" viewBox="0 0 24 24" id="eye">
    <path fill-rule="evenodd" clip-rule="evenodd" d="M1.05695 12.264C3.21608 17.0344 7.42227 20 12.0371 20C16.6519 20 20.858 17.0344 23.0171 12.264C23.0547 12.1811 23.0742 12.0911 23.0742 12C23.0742 11.9089 23.0547 11.8189 23.0171 11.736C20.858 6.96565 16.6519 4 12.0371 4C7.42227 4 3.22693 6.96565 1.05695 11.736C1.0194 11.8189 1 11.9089 1 12C1 12.0911 1.0194 12.1811 1.05695 12.264ZM9.65757 15.5566C10.3618 16.0273 11.1899 16.2785 12.037 16.2785C13.1718 16.2776 14.2598 15.8266 15.0626 15.0246C15.8653 14.2225 16.3171 13.1348 16.319 12.0001C16.3197 11.153 16.0692 10.3247 15.5991 9.62008C15.1291 8.91541 14.4606 8.36601 13.6782 8.04135C12.8958 7.7167 12.0347 7.63138 11.2038 7.7962C10.3729 7.96101 9.60958 8.36856 9.01036 8.96728C8.41114 9.56599 8.00294 10.329 7.83742 11.1597C7.67191 11.9905 7.75651 12.8516 8.08051 13.6343C8.4045 14.417 8.95331 15.0859 9.65757 15.5566Z" ></path>
  </symbol>
  <symbol  xmlns="http://www.w3.org/2000/svg" viewBox="0 0 24 24" id="person">
    <path d="M12.0833 13.7162C10.9245 13.7169 9.79154 13.3739 8.82772 12.7306C7.8639 12.0874 7.11253 11.1727 6.66861 10.1023C6.22469 9.03197 6.10818 7.85398 6.33382 6.71739C6.55946 5.5808 7.1171 4.53667 7.93623 3.71705C8.75536 2.89743 9.79919 2.33914 10.9356 2.11282C12.0721 1.8865 13.2502 2.00231 14.3208 2.44559C15.3914 2.88887 16.3065 3.63973 16.9504 4.60316C17.5942 5.5666 17.9379 6.69934 17.9379 7.85811C17.936 9.4106 17.3187 10.899 16.2213 11.9971C15.1238 13.0953 13.6358 13.7134 12.0833 13.7162Z" ></path>
    <path d="M19.0302 22.0266H5.13206C4.75476 22.0296 4.38369 21.9306 4.058 21.7401C3.73232 21.5496 3.4641 21.2747 3.28175 20.9444C3.09195 20.6141 2.99469 20.2387 3.00022 19.8578C3.00575 19.4769 3.11389 19.1045 3.3132 18.7799C4.80042 16.3117 8.24266 14.7162 12.0829 14.7162C15.9231 14.7162 19.3619 16.3117 20.8491 18.7799C21.0458 19.1034 21.153 19.4733 21.1598 19.8519C21.1666 20.2304 21.0726 20.604 20.8876 20.9343C20.7025 21.2646 20.433 21.5398 20.1067 21.7318C19.7803 21.9237 19.4088 22.0255 19.0302 22.0266Z" ></path>
  </symbol>
  <symbol  xmlns="http://www.w3.org/2000/svg" viewBox="0 0 19 19" id="search">
    <path d="M8 16C3.59 16 0 12.41 0 8C0 3.59 3.59 0 8 0C12.41 0 16 3.59 16 8C16 12.41 12.41 16 8 16ZM8 1C4.14 1 1 4.14 1 8C1 11.86 4.14 15 8 15C11.86 15 15 11.86 15 8C15 4.14 11.86 1 8 1Z" ></path>
    <path d="M18 18.5C17.87 18.5 17.74 18.45 17.65 18.35L13.65 14.35C13.45 14.15 13.45 13.84 13.65 13.64C13.85 13.44 14.16 13.44 14.36 13.64L18.36 17.64C18.56 17.84 18.56 18.15 18.36 18.35C18.26 18.45 18.13 18.5 18 18.5Z" ></path>
  </symbol>
  <symbol  xmlns="http://www.w3.org/2000/svg" viewBox="0 0 24 24" id="vk">
    <path fill-rule="evenodd" clip-rule="evenodd" d="M3.40589 3.40589C2 4.81177 2 7.07452 2 11.6V12.4C2 16.9255 2 19.1882 3.40589 20.5941C4.81177 22 7.07452 22 11.6 22H12.4C16.9255 22 19.1882 22 20.5941 20.5941C22 19.1882 22 16.9255 22 12.4V11.6C22 7.07452 22 4.81177 20.5941 3.40589C19.1882 2 16.9255 2 12.4 2H11.6C7.07452 2 4.81177 2 3.40589 3.40589ZM5.33301 8.125C5.44008 13.3275 8.17274 16.4583 12.6768 16.4583H12.9381V13.482C14.5785 13.6485 15.8018 14.8749 16.3012 16.4583H18.6663C18.0247 14.0896 16.3612 12.78 15.3272 12.2797C16.3604 11.6609 17.8226 10.1607 18.167 8.125H16.0152C15.5637 9.78046 14.2206 11.2806 12.9373 11.4231V8.125H10.7512V13.8991C9.42082 13.5661 7.68534 11.9466 7.61422 8.125H5.33301Z" ></path>
  </symbol>
  <symbol  xmlns="http://www.w3.org/2000/svg" viewBox="0 0 24 24" id="youtube">
    <path d="M23.0645 5.00478C22.1982 3.97495 20.5987 3.55487 17.5441 3.55487H6.45569C3.33112 3.55487 1.70454 4.00205 0.841471 5.09846C0 6.16746 0 7.74256 0 9.92254V14.0776C0 18.3009 0.9984 20.4451 6.45569 20.4451H17.5442C20.1931 20.4451 21.661 20.0745 22.6106 19.1656C23.5845 18.2337 24 16.712 24 14.0776V9.92254C24 7.62357 23.9349 6.03918 23.0645 5.00478ZM15.4081 12.5737L10.3729 15.2052C10.2603 15.2641 10.1372 15.2933 10.0143 15.2933C9.87507 15.2933 9.73618 15.2558 9.61316 15.1813C9.38152 15.041 9.24008 14.7899 9.24008 14.5191V9.27283C9.24008 9.00248 9.38113 8.75164 9.61231 8.61121C9.84356 8.47077 10.1312 8.46117 10.3711 8.58581L15.4063 11.2004C15.6625 11.3334 15.8234 11.5979 15.8237 11.8864C15.8241 12.1752 15.6639 12.4401 15.4081 12.5737Z" ></path>
  </symbol>
</svg>