<svg width="287" height="274" viewBox="0 0 287 274" fill="none" xmlns="http://www.w3.org/2000/svg">
<g clip-path="url(#clip0_402_433)">
<mask id="path-1-inside-1_402_433" fill="white">
<path fill-rule="evenodd" clip-rule="evenodd" d="M233.794 322.066C386.19 278.422 279.478 144.661 261.784 54.4621C247.677 55.8194 234.065 60.3605 221.969 67.7454C209.872 75.1303 199.604 85.1677 191.933 97.1064C184.261 109.045 179.385 122.576 177.67 136.686C175.954 150.797 177.443 165.121 182.026 178.587C188.767 205.001 197.926 227.618 207.002 252.176C214.227 276.1 223.279 299.434 234.078 321.97"/>
</mask>
<path fill-rule="evenodd" clip-rule="evenodd" d="M233.794 322.066C386.19 278.422 279.478 144.661 261.784 54.4621C247.677 55.8194 234.065 60.3605 221.969 67.7454C209.872 75.1303 199.604 85.1677 191.933 97.1064C184.261 109.045 179.385 122.576 177.67 136.686C175.954 150.797 177.443 165.121 182.026 178.587C188.767 205.001 197.926 227.618 207.002 252.176C214.227 276.1 223.279 299.434 234.078 321.97" fill="white" fill-opacity="0.2"/>
<path d="M261.784 54.4621L262.766 54.2696L262.591 53.3798L261.688 53.4667L261.784 54.4621ZM182.026 178.587L182.995 178.339L182.985 178.302L182.973 178.265L182.026 178.587ZM207.002 252.176L207.959 251.887L207.951 251.858L207.94 251.829L207.002 252.176ZM234.069 323.028C272.32 312.073 294.499 295.408 305.822 275.01C317.136 254.628 317.495 230.722 312.554 205.53C307.614 180.341 297.343 153.717 287.238 127.827C277.115 101.891 267.168 76.7123 262.766 54.2696L260.803 54.6546C265.247 77.3114 275.275 102.677 285.375 128.554C295.492 154.477 305.692 180.933 310.592 205.915C315.491 230.893 315.06 254.248 304.073 274.04C293.096 293.816 271.465 310.238 233.518 321.105L234.069 323.028ZM261.688 53.4667C247.43 54.8385 233.673 59.4281 221.448 66.8919L222.49 68.5989C234.457 61.2929 247.923 56.8004 261.88 55.4575L261.688 53.4667ZM221.448 66.8919C209.222 74.3556 198.845 84.5001 191.091 96.5659L192.774 97.647C200.364 85.8353 210.523 75.9049 222.49 68.5989L221.448 66.8919ZM191.091 96.5659C183.338 108.632 178.411 122.306 176.677 136.566L178.662 136.807C180.36 122.846 185.184 109.459 192.774 97.647L191.091 96.5659ZM176.677 136.566C174.943 150.825 176.448 165.301 181.079 178.909L182.973 178.265C178.438 164.941 176.965 150.768 178.662 136.807L176.677 136.566ZM181.057 178.834C187.815 205.313 197 227.999 206.064 252.523L207.94 251.829C198.851 227.237 189.719 204.688 182.995 178.339L181.057 178.834ZM206.045 252.465C213.284 276.438 222.355 299.82 233.177 322.402L234.98 321.538C224.203 299.048 215.169 275.762 207.959 251.887L206.045 252.465Z" fill="white" fill-opacity="0.5" mask="url(#path-1-inside-1_402_433)"/>
<path fill-rule="evenodd" clip-rule="evenodd" d="M214.614 328.895C202.537 286.937 188.018 245.721 171.132 205.458C147.114 156.844 78.8611 154.496 42.6109 179.981C43.1751 198.18 76.4863 289.776 85.6635 305.583C110.624 347.925 173.789 353.381 214.614 328.895Z" fill="white" fill-opacity="0.2"/>
<path d="M170.677 205.666C187.503 245.788 201.978 286.857 214.027 328.663C193.77 340.697 168.041 345.365 144.264 341.805C120.36 338.226 98.4812 326.341 86.0952 305.331C83.8224 301.415 80.0328 292.762 75.6087 281.663C71.1893 270.576 66.1498 257.082 61.379 243.513C56.608 229.943 52.1075 216.302 48.7651 204.92C45.4809 193.736 43.3348 184.796 43.1211 180.234C61.1219 167.681 87.0035 161.979 111.388 165.428C135.859 168.888 158.756 181.551 170.677 205.666Z" stroke="white" stroke-opacity="0.5"/>
<path d="M153.083 152.904C104.198 133.672 78.069 96.9359 103.405 32.7404C152.518 57.636 173.105 95.8278 153.083 152.904Z" fill="white" fill-opacity="0.2" stroke="white" stroke-opacity="0.5" stroke-miterlimit="10"/>
</g>
<defs>
<clipPath id="clip0_402_433">
<rect width="251.897" height="320.009" fill="white" transform="translate(0.522949 65.9575) rotate(-18.7471)"/>
</clipPath>
</defs>
</svg>
