<svg width="601" height="763" viewBox="0 0 601 763" fill="none" xmlns="http://www.w3.org/2000/svg">
<g clip-path="url(#clip0_305_4304)" filter="url(#filter0_b_305_4304)">
<mask id="path-1-inside-1_305_4304" fill="white">
<path fill-rule="evenodd" clip-rule="evenodd" d="M330.545 756.434C707.215 774.647 569.095 391.451 598.198 174.57C565.38 166.836 531.246 166.659 498.35 174.052C465.455 181.445 434.649 196.216 408.24 217.261C381.831 238.306 360.502 265.079 345.849 295.576C331.196 326.073 323.599 359.504 323.627 393.368C318.617 458.073 321.957 516.067 323.627 578.376C321.611 637.837 324.163 697.366 331.26 756.434"/>
</mask>
<path d="M598.198 174.57L599.189 174.703L599.309 173.805L598.427 173.597L598.198 174.57ZM323.627 393.368L324.624 393.445L324.627 393.406L324.627 393.367L323.627 393.368ZM323.627 578.376L324.626 578.409L324.627 578.379L324.627 578.349L323.627 578.376ZM330.497 757.432C424.822 761.993 487.114 741.432 527.853 704.44C568.578 667.461 587.59 614.219 595.7 553.795C603.81 493.375 601.037 425.621 598.067 359.499C595.095 293.329 591.928 228.815 599.189 174.703L597.207 174.437C589.916 228.765 593.1 293.481 596.069 359.589C599.041 425.745 601.8 493.317 593.718 553.529C585.636 613.738 566.734 666.434 526.508 702.96C486.297 739.473 424.602 759.98 330.593 755.435L330.497 757.432ZM598.427 173.597C565.462 165.828 531.174 165.65 498.131 173.076L498.569 175.027C531.317 167.668 565.298 167.844 597.968 175.543L598.427 173.597ZM498.131 173.076C465.087 180.502 434.144 195.34 407.617 216.479L408.863 218.043C435.155 197.092 465.822 182.387 498.569 175.027L498.131 173.076ZM407.617 216.479C381.09 237.618 359.666 264.51 344.948 295.143L346.75 296.009C361.338 265.647 382.572 238.994 408.863 218.043L407.617 216.479ZM344.948 295.143C330.23 325.775 322.599 359.355 322.627 393.369L324.627 393.367C324.599 359.653 332.163 326.37 346.75 296.009L344.948 295.143ZM322.63 393.291C317.615 458.063 320.958 516.131 322.627 578.402L324.627 578.349C322.956 516.004 319.62 458.083 324.624 393.445L322.63 393.291ZM322.627 578.342C320.609 637.854 323.164 697.435 330.268 756.553L332.253 756.314C325.162 697.298 322.612 637.82 324.626 578.409L322.627 578.342Z" fill="#20877D" mask="url(#path-1-inside-1_305_4304)"/>
<path d="M278.043 445.662C285.288 549.197 286.488 653.07 281.637 756.746C226.508 768.58 164.589 759.415 113.455 733.044C62.2069 706.615 21.8364 662.929 9.94613 605.836C7.80772 595.214 5.88552 572.754 4.40549 544.354C2.92615 515.968 1.89012 481.683 1.51745 447.434C1.14477 413.185 1.43553 378.977 2.60916 350.744C3.77417 322.718 5.80759 300.647 8.90258 290.245C59.2965 275.527 122.315 282.476 174.874 309.04C227.51 335.643 269.596 381.886 278.043 445.662Z" stroke="#20877D"/>
<path d="M278.064 313.327C182.644 232.566 151.871 129.757 258.026 4.42188C349.629 98.1239 366.805 199.974 278.064 313.327Z" stroke="#20877D" stroke-miterlimit="10"/>
</g>
<defs>
<filter id="filter0_b_305_4304" x="-9.13074" y="-9.4126" width="619.237" height="781.838" filterUnits="userSpaceOnUse" color-interpolation-filters="sRGB">
<feFlood flood-opacity="0" result="BackgroundImageFix"/>
<feGaussianBlur in="BackgroundImageFix" stdDeviation="5"/>
<feComposite in2="SourceAlpha" operator="in" result="effect1_backgroundBlur_305_4304"/>
<feBlend mode="normal" in="SourceGraphic" in2="effect1_backgroundBlur_305_4304" result="shape"/>
</filter>
<clipPath id="clip0_305_4304">
<rect width="599.237" height="761.838" fill="white" transform="translate(0.869263 0.587402)"/>
</clipPath>
</defs>
</svg>
