<svg width="545" height="632" viewBox="0 0 545 632" fill="none" xmlns="http://www.w3.org/2000/svg">
<g opacity="0.5" filter="url(#filter0_b_603_6309)">
<mask id="path-1-inside-1_603_6309" fill="white">
<path fill-rule="evenodd" clip-rule="evenodd" d="M317.995 583.658C72.6624 662.241 96.2261 385.631 38.777 248.042C59.0678 237.149 81.5599 230.998 104.57 230.047C127.579 229.096 150.511 233.371 171.648 242.552C192.785 251.733 211.58 265.582 226.627 283.062C241.673 300.542 254.366 331.878 258.535 343.492C268.473 371.174 286.698 430.212 295.113 465.701C305.186 508.184 311.79 543.656 317.523 583.784"/>
</mask>
<path fill-rule="evenodd" clip-rule="evenodd" d="M317.995 583.658C72.6624 662.241 96.2261 385.631 38.777 248.042C59.0678 237.149 81.5599 230.998 104.57 230.047C127.579 229.096 150.511 233.371 171.648 242.552C192.785 251.733 211.58 265.582 226.627 283.062C241.673 300.542 254.366 331.878 258.535 343.492C268.473 371.174 286.698 430.212 295.113 465.701C305.186 508.184 311.79 543.656 317.523 583.784" fill="white" fill-opacity="0.2"/>
<path d="M38.777 248.042L37.8542 248.427L37.5046 247.59L38.304 247.161L38.777 248.042ZM258.535 343.492L257.594 343.83L258.535 343.492ZM295.113 465.701L294.14 465.932L295.113 465.701ZM318.3 584.61C256.816 604.304 211.994 601.802 178.49 584.608C145.001 567.423 123.027 535.665 107.007 497.3C90.9879 458.938 80.8639 413.829 71.1647 369.793C61.4549 325.709 52.1744 282.723 37.8542 248.427L39.6998 247.656C54.1042 282.154 63.4216 325.341 73.1179 369.363C82.8246 413.433 92.9147 458.362 108.852 496.529C124.789 534.692 146.515 565.952 179.403 582.829C212.275 599.698 256.507 602.303 317.69 582.705L318.3 584.61ZM38.304 247.161C58.728 236.197 81.3677 230.005 104.528 229.048L104.611 231.046C81.7522 231.99 59.4077 238.102 39.25 248.923L38.304 247.161ZM104.528 229.048C127.689 228.091 150.771 232.394 172.046 241.635L171.25 243.469C150.251 234.349 127.47 230.102 104.611 231.046L104.528 229.048ZM172.046 241.635C193.322 250.876 212.24 264.815 227.385 282.409L225.869 283.714C210.921 266.348 192.248 252.59 171.25 243.469L172.046 241.635ZM227.385 282.409C234.993 291.248 241.972 303.544 247.559 315.04C253.153 326.548 257.382 337.32 259.476 343.154L257.594 343.83C255.519 338.05 251.317 327.347 245.76 315.914C240.198 304.468 233.308 292.356 225.869 283.714L227.385 282.409ZM259.476 343.154C269.424 370.865 287.661 429.938 296.086 465.47L294.14 465.932C285.735 430.485 267.521 371.484 257.594 343.83L259.476 343.154ZM296.086 465.47C306.166 507.984 312.776 543.485 318.512 583.643L316.533 583.926C310.804 543.826 304.206 508.385 294.14 465.932L296.086 465.47Z" fill="url(#paint0_linear_603_6309)" mask="url(#path-1-inside-1_603_6309)"/>
<mask id="path-3-inside-2_603_6309" fill="white">
<path fill-rule="evenodd" clip-rule="evenodd" d="M366.101 570.768C617.857 516.157 459.145 288.387 440.103 140.507C417.084 141.219 394.53 147.138 374.127 157.819C353.725 168.501 336.003 183.669 322.288 202.188C308.573 220.708 299.221 242.099 294.93 264.76C290.639 287.422 295.316 320.905 297.512 333.049C302.747 361.991 316.482 422.231 326.939 457.173C339.457 499.002 351.474 533.023 366.573 570.641"/>
</mask>
<path fill-rule="evenodd" clip-rule="evenodd" d="M366.101 570.768C617.857 516.157 459.145 288.387 440.103 140.507C417.084 141.219 394.53 147.138 374.127 157.819C353.725 168.501 336.003 183.669 322.288 202.188C308.573 220.708 299.221 242.099 294.93 264.76C290.639 287.422 295.316 320.905 297.512 333.049C302.747 361.991 316.482 422.231 326.939 457.173C339.457 499.002 351.474 533.023 366.573 570.641" fill="white" fill-opacity="0.2"/>
<path d="M440.103 140.507L441.095 140.379L440.979 139.479L440.072 139.507L440.103 140.507ZM297.512 333.049L298.496 332.871L297.512 333.049ZM326.939 457.173L327.897 456.887L326.939 457.173ZM366.313 571.745C429.406 558.059 466.972 533.481 487.391 501.838C507.801 470.211 510.951 431.721 505.643 390.486C500.335 349.254 486.548 305.126 472.93 262.14C459.297 219.108 445.841 177.241 441.095 140.379L439.111 140.635C443.885 177.713 457.409 219.772 471.023 262.744C484.652 305.764 498.378 349.719 503.659 390.741C508.94 431.76 505.754 469.694 485.711 500.754C465.677 531.799 428.674 556.171 365.889 569.79L366.313 571.745ZM440.072 139.507C416.902 140.224 394.2 146.182 373.663 156.933L374.591 158.705C394.86 148.094 417.266 142.214 440.134 141.506L440.072 139.507ZM373.663 156.933C353.127 167.685 335.289 182.953 321.485 201.593L323.092 202.783C336.717 184.385 354.323 169.317 374.591 158.705L373.663 156.933ZM321.485 201.593C307.68 220.234 298.266 241.765 293.948 264.574L295.913 264.946C300.175 242.433 309.467 221.182 323.092 202.783L321.485 201.593ZM293.948 264.574C291.778 276.032 291.882 290.171 292.791 302.92C293.701 315.684 295.425 327.127 296.528 333.227L298.496 332.871C297.403 326.828 295.69 315.457 294.786 302.778C293.881 290.084 293.791 276.149 295.913 264.946L293.948 264.574ZM296.528 333.227C301.768 362.199 315.512 422.476 325.981 457.46L327.897 456.887C317.453 421.986 303.725 361.783 298.496 332.871L296.528 333.227ZM325.981 457.46C338.508 499.318 350.535 533.368 365.645 571.014L367.501 570.269C352.413 532.677 340.406 498.685 327.897 456.887L325.981 457.46Z" fill="url(#paint1_linear_603_6309)" mask="url(#path-3-inside-2_603_6309)"/>
<path d="M253.135 245.263C175.931 209.002 153.894 155.33 201.85 54.1012C293.995 117.79 301.865 175.258 253.135 245.263Z" fill="white" fill-opacity="0.2" stroke="url(#paint2_linear_603_6309)" stroke-miterlimit="10"/>
</g>
<defs>
<filter id="filter0_b_603_6309" x="-7" y="-7" width="558.037" height="645.718" filterUnits="userSpaceOnUse" color-interpolation-filters="sRGB">
<feFlood flood-opacity="0" result="BackgroundImageFix"/>
<feGaussianBlur in="BackgroundImageFix" stdDeviation="3.5"/>
<feComposite in2="SourceAlpha" operator="in" result="effect1_backgroundBlur_603_6309"/>
<feBlend mode="normal" in="SourceGraphic" in2="effect1_backgroundBlur_603_6309" result="shape"/>
</filter>
<linearGradient id="paint0_linear_603_6309" x1="274.078" y1="228.994" x2="58.5275" y2="537.852" gradientUnits="userSpaceOnUse">
<stop stop-color="white"/>
<stop offset="0.515625" stop-color="white" stop-opacity="0"/>
<stop offset="1" stop-color="white" stop-opacity="0.6"/>
</linearGradient>
<linearGradient id="paint1_linear_603_6309" x1="307.267" y1="173.409" x2="547.395" y2="483.535" gradientUnits="userSpaceOnUse">
<stop stop-color="white"/>
<stop offset="0.515625" stop-color="white" stop-opacity="0"/>
<stop offset="1" stop-color="white" stop-opacity="0.6"/>
</linearGradient>
<linearGradient id="paint2_linear_603_6309" x1="153.756" y1="96.0348" x2="299.982" y2="241.808" gradientUnits="userSpaceOnUse">
<stop stop-color="white"/>
<stop offset="0.515625" stop-color="white" stop-opacity="0"/>
<stop offset="1" stop-color="white" stop-opacity="0.6"/>
</linearGradient>
</defs>
</svg>
