<svg width="622" height="908" viewBox="0 0 622 908" fill="none" xmlns="http://www.w3.org/2000/svg">
<g clip-path="url(#clip0_305_4304)" filter="url(#filter0_b_305_4304)">
<mask id="path-1-inside-1_305_4304" fill="white">
<path fill-rule="evenodd" clip-rule="evenodd" d="M542.141 801.943C906.787 705.79 659.603 382.037 621.99 166.469C588.367 168.985 555.767 179.103 526.629 196.066C497.491 213.029 472.57 236.398 453.731 264.424C434.892 292.449 422.623 324.405 417.843 357.9C413.062 391.395 415.894 425.562 426.126 457.843C440.85 521.049 461.512 575.341 481.883 634.249C497.88 691.553 518.255 747.546 542.824 801.727"/>
</mask>
<path d="M621.99 166.469L622.975 166.297L622.82 165.404L621.916 165.472L621.99 166.469ZM426.126 457.843L427.1 457.616L427.091 457.578L427.079 457.541L426.126 457.843ZM481.883 634.249L482.846 633.98L482.838 633.951L482.828 633.922L481.883 634.249ZM542.396 802.91C633.711 778.831 686.91 740.452 714.606 692.903C742.293 645.37 744.375 588.873 733.898 528.815C723.421 468.759 700.358 404.991 677.599 342.839C654.823 280.641 632.36 220.082 622.975 166.297L621.005 166.641C630.427 220.64 652.967 281.388 675.721 343.527C698.492 405.712 721.487 469.31 731.928 529.158C742.367 589.003 740.225 644.947 712.878 691.897C685.54 738.831 632.895 776.978 541.886 800.976L542.396 802.91ZM621.916 165.472C588.142 167.999 555.395 178.163 526.126 195.202L527.132 196.93C556.139 180.044 588.593 169.971 622.065 167.466L621.916 165.472ZM526.126 195.202C496.857 212.241 471.824 235.715 452.901 263.866L454.561 264.981C473.315 237.081 498.125 213.817 527.132 196.93L526.126 195.202ZM452.901 263.866C433.978 292.016 421.654 324.115 416.853 357.759L418.833 358.041C423.592 324.695 435.806 292.881 454.561 264.981L452.901 263.866ZM416.853 357.759C412.051 391.403 414.895 425.721 425.173 458.145L427.079 457.541C416.892 425.403 414.073 391.388 418.833 358.041L416.853 357.759ZM425.152 458.07C439.891 521.341 460.579 575.702 480.938 634.576L482.828 633.922C462.445 574.979 441.808 520.757 427.1 457.616L425.152 458.07ZM480.92 634.518C496.931 691.871 517.323 747.912 541.913 802.14L543.735 801.314C519.186 747.179 498.83 691.235 482.846 633.98L480.92 634.518Z" fill="#20877D" mask="url(#path-1-inside-1_305_4304)"/>
<path d="M398.421 521.444C436.533 617.982 468.982 716.663 495.602 816.98C446.602 844.879 384.8 854.801 328.096 845.067C271.265 835.311 219.606 805.823 191.062 754.968C185.822 745.483 177.22 724.648 167.25 698.015C157.285 671.394 145.964 639.015 135.287 606.471C124.61 573.927 114.578 541.222 107.188 513.948C99.8524 486.874 95.1396 465.216 94.9557 454.365C138.571 425.143 200.753 412.777 258.874 422.266C317.081 431.77 371.147 463.179 398.421 521.444Z" stroke="#20877D"/>
<path d="M358.559 395.255C243.236 347.006 182.91 258.251 246.356 106.751C361.94 168.489 409.012 260.428 358.559 395.255Z" stroke="#20877D" stroke-miterlimit="10"/>
</g>
<defs>
<filter id="filter0_b_305_4304" x="-10" y="-10" width="820.976" height="927.013" filterUnits="userSpaceOnUse" color-interpolation-filters="sRGB">
<feFlood flood-opacity="0" result="BackgroundImageFix"/>
<feGaussianBlur in="BackgroundImageFix" stdDeviation="5"/>
<feComposite in2="SourceAlpha" operator="in" result="effect1_backgroundBlur_305_4304"/>
<feBlend mode="normal" in="SourceGraphic" in2="effect1_backgroundBlur_305_4304" result="shape"/>
</filter>
<clipPath id="clip0_305_4304">
<rect width="599.237" height="761.838" fill="white" transform="translate(0 180.596) rotate(-17.5403)"/>
</clipPath>
</defs>
</svg>
