<svg width="171" height="249" viewBox="0 0 171 249" fill="none" xmlns="http://www.w3.org/2000/svg">
<g opacity="0.5" clip-path="url(#clip0_305_5837)">
<mask id="path-1-inside-1_305_5837" fill="white">
<path fill-rule="evenodd" clip-rule="evenodd" d="M145.684 26.6953C244.099 48.0733 182.211 136.525 174.856 194.003C165.86 193.712 157.043 191.398 149.064 187.234C141.084 183.069 134.15 177.162 128.779 169.955C123.409 162.747 119.741 154.426 118.051 145.614C116.361 136.802 118.169 123.787 119.02 119.068C121.049 107.82 126.381 84.4097 130.447 70.832C135.314 54.5786 139.99 41.3601 145.869 26.7448"/>
</mask>
<path d="M174.856 194.003L175.352 194.066L175.294 194.517L174.84 194.502L174.856 194.003ZM119.02 119.068L119.512 119.157L119.02 119.068ZM130.447 70.832L130.926 70.9755L130.447 70.832ZM145.79 26.2067C170.47 31.5678 185.195 41.1555 193.215 53.5008C201.23 65.8395 202.482 80.8355 200.43 96.8752C198.378 112.913 193.013 130.069 187.717 146.77C182.414 163.494 177.184 179.751 175.352 194.066L174.36 193.939C176.206 179.515 181.47 163.162 186.764 146.468C192.065 129.75 197.4 112.681 199.438 96.7483C201.476 80.8181 200.207 66.1004 192.376 54.0456C184.55 41.9974 170.105 32.5118 145.578 27.1839L145.79 26.2067ZM174.84 194.502C165.769 194.209 156.878 191.876 148.832 187.677L149.295 186.79C157.208 190.92 165.952 193.215 174.872 193.503L174.84 194.502ZM148.832 187.677C140.786 183.478 133.794 177.521 128.378 170.253L129.18 169.656C134.506 176.803 141.382 182.661 149.295 186.79L148.832 187.677ZM128.378 170.253C122.963 162.985 119.265 154.594 117.56 145.708L118.542 145.52C120.218 154.257 123.855 162.509 129.18 169.656L128.378 170.253ZM117.56 145.708C116.703 141.238 116.736 135.73 117.084 130.771C117.432 125.805 118.1 121.353 118.528 118.979L119.512 119.157C119.089 121.502 118.427 125.917 118.081 130.841C117.735 135.772 117.71 141.177 118.542 145.52L117.56 145.708ZM118.528 118.979C120.559 107.716 125.896 84.2872 129.968 70.6886L130.926 70.9755C126.866 84.5321 121.538 107.924 119.512 119.157L118.528 118.979ZM129.968 70.6886C134.84 54.4201 139.521 41.1873 145.405 26.5582L146.332 26.9313C140.459 41.5329 135.789 54.737 130.926 70.9755L129.968 70.6886Z" fill="#20877D" mask="url(#path-1-inside-1_305_5837)"/>
<mask id="path-3-inside-2_305_5837" fill="white">
<path fill-rule="evenodd" clip-rule="evenodd" d="M126.854 21.6498C30.9346 -9.04402 40.3059 98.5022 17.9364 151.956C25.8722 156.202 34.6655 158.607 43.658 158.99C52.6505 159.373 61.6094 157.725 69.8641 154.168C78.1188 150.612 85.4556 145.239 91.3253 138.453C97.195 131.666 102.137 119.492 103.759 114.979C107.626 104.223 114.714 81.2835 117.981 67.4919C121.893 50.9824 124.453 37.1969 126.669 21.6003"/>
</mask>
<path d="M17.9364 151.956L17.4752 151.763L17.2996 152.182L17.7005 152.397L17.9364 151.956ZM103.759 114.979L103.289 114.81L103.759 114.979ZM117.981 67.4919L117.495 67.3766L117.981 67.4919ZM127.006 21.1736C102.952 13.4763 85.4059 14.4169 72.2884 21.0987C59.178 27.7769 50.5957 40.1378 44.3527 55.0545C38.1106 69.9692 34.1789 87.5099 30.4149 104.621C26.6456 121.756 23.0463 138.45 17.4752 151.763L18.3976 152.149C24.0112 138.735 27.6291 121.94 31.3916 104.836C35.1594 87.7075 39.074 70.2575 45.2752 55.4406C51.4755 40.6257 59.9334 28.5143 72.7423 21.9898C85.544 15.4688 102.796 14.4764 126.702 22.126L127.006 21.1736ZM17.7005 152.397C25.7026 156.679 34.5692 159.103 43.6367 159.49L43.6793 158.491C34.7618 158.111 26.0419 155.726 18.1723 151.515L17.7005 152.397ZM43.6367 159.49C52.7042 159.876 61.738 158.214 70.0619 154.627L69.6662 153.709C61.4807 157.236 52.5967 158.871 43.6793 158.491L43.6367 159.49ZM70.0619 154.627C78.3858 151.041 85.7843 145.623 91.7035 138.78L90.9471 138.125C85.1269 144.855 77.8518 150.182 69.6662 153.709L70.0619 154.627ZM91.7035 138.78C94.681 135.337 97.4063 130.551 99.5844 126.082C101.766 121.607 103.413 117.418 104.23 115.148L103.289 114.81C102.482 117.052 100.848 121.207 98.6855 125.644C96.5197 130.087 93.8394 134.781 90.9471 138.125L91.7035 138.78ZM104.23 115.148C108.102 104.378 115.195 81.42 118.468 67.6072L117.495 67.3766C114.232 81.1469 107.151 104.069 103.289 114.81L104.23 115.148ZM118.468 67.6072C122.383 51.0824 124.946 37.2819 127.164 21.6707L126.174 21.53C123.96 37.1118 121.403 50.8824 117.495 67.3766L118.468 67.6072Z" fill="#20877D" mask="url(#path-3-inside-2_305_5837)"/>
<path d="M101.707 153.11C120.92 180.344 117.95 202.653 81.8639 227.26C62.9159 187.907 71.4515 167.089 101.707 153.11Z" stroke="#20877D" stroke-width="0.5" stroke-miterlimit="10"/>
</g>
<defs>
<clipPath id="clip0_305_5837">
<rect width="168" height="212" fill="white" transform="translate(163 249) rotate(-165)"/>
</clipPath>
</defs>
</svg>
